<svg xmlns="http://www.w3.org/2000/svg" id="BenYLCVLRpbVh1Bx82u9n" width="1016" height="1224" viewBox="3532 3180 1016 1224" style="width: 100%; height: 100%; font-family: Inter, arial, sans-serif;"><g id="wrapper" transform="translate(0, 0) scale(1)"><g id="objects"><g id="icn_3cNLVpY9wJczbNpSwMYDk" transform="translate(4000,3280)"><g transform="translate(0,0)"><path d="&#10;    M 0, 21.248&#10;    C 0, 3.750272 3.750272, 0 21.248, 0&#10;    L 42.751999999999995, 0&#10;    C 60.249728, 0 64, 3.750272 64, 21.248&#10;    L 64, 42.751999999999995&#10;    C 64, 60.249728 60.249728, 64 42.751999999999995, 64&#10;    L 21.248, 64&#10;    C 3.750272, 64 0, 60.249728 0, 42.751999999999995&#10;    L 0, 21.248&#10;  " stroke-width="2" stroke="#c0def4" fill="#e8f3fb"/></g><rect width="74" height="74" x="-5" y="-5" fill="transparent"/><rect width="54" height="54" x="5" y="5" fill="transparent"/><g><svg viewBox="0 0 50 50" width="40" height="40" x="12" y="12"><svg id="bYX1dn49_UVeZUXw8dtMP" xmlns="http://www.w3.org/2000/svg" viewBox="6.2 4.58 38.29 41.6" width="50" height="50"><g fill="none" fill-rule="evenodd"><path fill="#5EA0EF" d="M30.26 6.133H7.792V32.1h22.466V6.133Z"/><path fill="#0078D4" d="M30.26 32.842H7.792a.742.742 0 0 1-.743-.742V6.133a.74.74 0 0 1 .743-.742h22.466a.74.74 0 0 1 .74.742V32.1a.742.742 0 0 1-.74.742ZM8.532 31.358h20.984V6.876H8.533v24.482Z"/><path fill="#83B9F9" d="M34.553 9.653H12.086V35.62h22.467V9.653Z"/><path fill="#0078D4" d="M34.553 36.362H12.086a.744.744 0 0 1-.742-.742V9.653a.745.745 0 0 1 .742-.742h22.467a.742.742 0 0 1 .742.742v25.96a.742.742 0 0 1-.742.75Zm-21.725-1.484h20.985V10.396H12.828v24.482Z"/><path fill="#fff" d="M32.246 12.925h-13.92a1.111 1.111 0 0 0-1.1 1.11v30.023a1.111 1.111 0 0 0 1.1 1.11H42.45a1.111 1.111 0 0 0 1.098-1.11v-19.88a1.111 1.111 0 0 0-1.098-1.111h-8a1.111 1.111 0 0 1-1.1-1.1v-7.94a1.111 1.111 0 0 0-1.104-1.102Z"/><path fill="url(#g-e8KaONhdNi1C066N9m7)" d="M31.737 14.331v7.54a2.77 2.77 0 0 0 2.771 2.767h7.596v19.11H18.679V14.332h13.058Zm.533-1.649H18.146a1.11 1.11 0 0 0-1.111 1.111V44.28a1.111 1.111 0 0 0 1.11 1.111h24.483a1.11 1.11 0 0 0 1.111-1.111V24.105a1.111 1.111 0 0 0-1.11-1.112h-8.12a1.111 1.111 0 0 1-1.112-1.11v-8.085a1.111 1.111 0 0 0-1.111-1.111l-.016-.005Z"/><path fill="#0078D4" d="M43.317 23.211 33.001 12.925v8.382a1.894 1.894 0 0 0 1.88 1.904h8.436Z"/><path fill="#5EA0EF" d="M38.377 27.573h-15.98c-.605 0-1.095.49-1.095 1.096v.247c0 .605.49 1.095 1.095 1.095h15.98c.605 0 1.096-.49 1.096-1.095v-.247c0-.605-.49-1.096-1.096-1.096zm0 4.37h-15.98c-.605 0-1.095.49-1.095 1.095v.247c0 .605.49 1.095 1.095 1.095h15.98c.605 0 1.096-.49 1.096-1.096v-.246c0-.605-.49-1.096-1.096-1.096zm-6.718 4.366h-9.262c-.605 0-1.095.49-1.095 1.096v.246c0 .605.49 1.096 1.095 1.096h9.262c.605 0 1.096-.49 1.096-1.096v-.247c0-.605-.49-1.095-1.096-1.095z"/><defs><linearGradient id="g-e8KaONhdNi1C066N9m7" x1="30.388" x2="30.388" y1="45.391" y2="12.682" gradientUnits="userSpaceOnUse"><stop stop-color="#0078D4"/><stop offset=".817" stop-color="#5EA0EF"/></linearGradient></defs></g></svg></svg><g transform="translate(-7.9921875, 68)"><g transform="translate(0,-4)"><text><tspan dy="19" x="39.9921875" text-anchor="middle"><tspan text-decoration="none" font-style="normal" font-size="14px" font-weight="normal" fill="#000000" style="font-weight: normal;">Text Splitter</tspan></tspan></text></g></g></g></g><g transform="translate(4016, 3408)"><g><path d="M0,5A5,5,90,0,1,5,0L27,0A5,5,90,0,1,32,5L32,107A5,5,-270,0,1,27,112L5,112A5,5,90,0,1,0,107Z" fill="#f1f1f1" stroke="#dadada" stroke-width="2"/></g><g transform="translate(10, 10)"><g transform="translate(0,-4)"><text y="36.5"><tspan dy="19" x="6" text-anchor="middle"><tspan text-decoration="none" font-style="normal" font-size="14px" font-weight="normal" fill="gray" style="font-weight: normal;"> </tspan></tspan></text></g></g><rect width="28" height="108" fill="none" stroke="none"/><g transform="translate(-5,-5)"><path d="M0,5A5,5,90,0,1,5,0L37,0A5,5,90,0,1,42,5L42,117A5,5,-270,0,1,37,122L5,122A5,5,90,0,1,0,117Z" fill="transparent"/></g><g transform="translate(5,5)"><path d="M0,5A5,5,90,0,1,5,0L17,0A5,5,90,0,1,22,5L22,97A5,5,-270,0,1,17,102L5,102A5,5,90,0,1,0,97Z" fill="transparent"/></g></g><g id="icn_jo5zsodDaI1I0jTUrpcmO" transform="translate(4256,3280)"><g transform="translate(0,0)"><path d="&#10;    M 0, 21.248&#10;    C 0, 3.750272 3.750272, 0 21.248, 0&#10;    L 42.751999999999995, 0&#10;    C 60.249728, 0 64, 3.750272 64, 21.248&#10;    L 64, 42.751999999999995&#10;    C 64, 60.249728 60.249728, 64 42.751999999999995, 64&#10;    L 21.248, 64&#10;    C 3.750272, 64 0, 60.249728 0, 42.751999999999995&#10;    L 0, 21.248&#10;  " stroke-width="2" stroke="#fad2b8" fill="#fdefe5"/></g><rect width="74" height="74" x="-5" y="-5" fill="transparent"/><rect width="54" height="54" x="5" y="5" fill="transparent"/><g><svg viewBox="0 0 50 50" width="40" height="40" x="12" y="12"><svg id="uj3XpccgTM6x4JeeNAx0P" xmlns="http://www.w3.org/2000/svg" fill="none" viewBox="0 0 24 24" width="50" height="50"><g clip-path="url(#6ToDQnkkElDzmmMHdhARm)"><path fill="#231E21" d="M12.1 23H1V11.9h5v2.3H3.7V20h5.7v-2.4h2.7V23Zm-1-11.1-2.5 2.3H7v-2.3h4.1Zm1 4.7H9.4v-1.8l2.7-2.5v4.3Zm1-5.2L19 5.9h5V.1h-5.7v5.1l-6.1 5.7H7v-5h2.5V.1H3.8v5.7H6v5H0V24h13.1v-6.4h5.2v2.2H24v-5.7h-5.7v2.5h-5.2v-5.2Z"/></g><defs><clipPath id="6ToDQnkkElDzmmMHdhARm"><path fill="#fff" d="M0 0h24v24H0z"/></clipPath></defs></svg></svg><g transform="translate(-9.328125, 68)"><g transform="translate(0,-4)"><text><tspan dy="19" x="41.328125" text-anchor="middle"><tspan text-decoration="none" font-style="normal" font-size="14px" font-weight="normal" fill="#000000" style="font-weight: normal;">Vector Store</tspan></tspan></text></g></g></g></g><g transform="translate(4144, 3776)"><g><path d="M0,5A5,5,90,0,1,5,0L27,0A5,5,90,0,1,32,5L32,59A5,5,-270,0,1,27,64L5,64A5,5,90,0,1,0,59Z" fill="#f1f1f1" stroke="#dadada" stroke-width="2"/></g><g transform="translate(10, 10)"><g transform="translate(0,-4)"><text y="12.5"><tspan dy="19" x="6" text-anchor="middle"><tspan text-decoration="none" font-style="normal" font-size="14px" font-weight="normal" fill="gray" style="font-weight: normal;"> </tspan></tspan></text></g></g><rect width="28" height="60" fill="none" stroke="none"/><g transform="translate(-5,-5)"><path d="M0,5A5,5,90,0,1,5,0L37,0A5,5,90,0,1,42,5L42,69A5,5,-270,0,1,37,74L5,74A5,5,90,0,1,0,69Z" fill="transparent"/></g><g transform="translate(5,5)"><path d="M0,5A5,5,90,0,1,5,0L17,0A5,5,90,0,1,22,5L22,49A5,5,-270,0,1,17,54L5,54A5,5,90,0,1,0,49Z" fill="transparent"/></g></g><g id="icn_lw8afFXZCBZMINhO3lNLM" transform="translate(4128,3280)"><g transform="translate(0,0)"><path d="&#10;    M 0, 21.248&#10;    C 0, 3.750272 3.750272, 0 21.248, 0&#10;    L 42.751999999999995, 0&#10;    C 60.249728, 0 64, 3.750272 64, 21.248&#10;    L 64, 42.751999999999995&#10;    C 64, 60.249728 60.249728, 64 42.751999999999995, 64&#10;    L 21.248, 64&#10;    C 3.750272, 64 0, 60.249728 0, 42.751999999999995&#10;    L 0, 21.248&#10;  " stroke-width="2" stroke="#cedecc" fill="#edf3ec"/></g><rect width="74" height="74" x="-5" y="-5" fill="transparent"/><rect width="54" height="54" x="5" y="5" fill="transparent"/><g><svg viewBox="0 0 50 50" width="40" height="40" x="12" y="12"><svg id="oT-EoUAqlinrLQK4aYrfp" xmlns="http://www.w3.org/2000/svg" viewBox="4.76 4.64 41.53 41.53" width="50" height="50"><path fill="#1B660F" fill-rule="evenodd" d="M43.916 33.717c-.164-.17-.478-.43-1.053-.791l-.083.621c.563.13.92.168 1.136.17zm-1.27-9.995c-.097-.85-4.05-2.773-10.24-2.773-6.187 0-10.14 1.923-10.238 2.773l.014.11c.337.968 4.423 2.345 10.225 2.345 5.803 0 9.888-1.377 10.226-2.346l.014-.109zm-.269 2.11c-2.19 1.168-6.17 1.774-9.97 1.774-3.8 0-7.78-.606-9.97-1.773l1.043 7.74c.716.246 1.389.658 1.977 1.239.366.36.68.78.94 1.254a2.405 2.405 0 0 1 1.827-.19c.973.288 1.645 1.114 1.86 2.253.428.13.862.327 1.243.568 1.191.754 1.795 1.734 1.795 2.916 0 .963-.262 1.76-.75 2.397h.035c1.825 0 3.65-.19 5.133-.533a10.696 10.696 0 0 0 1.51-.454c.839-.332 1.091-.627 1.113-.705 0-.031 0-.05.005-.082l1.03-7.643c-2.931-.907-6.842-2.715-8.494-3.503-.11.038-.224.063-.347.063a1.073 1.073 0 0 1 0-2.143c.508 0 .932.355 1.042.83 1.331.632 5.14 2.4 7.993 3.313l.985-7.32zm-10.684 15.78c0-.462-.128-1.074-1.13-1.708a3.63 3.63 0 0 0-1.254-.494.713.713 0 0 1-.593-.756c-.068-.737-.4-1.261-.897-1.408-.405-.118-.844.038-1.116.4a.716.716 0 0 1-1.244-.187c-.235-.655-.574-1.204-1.005-1.63-.39-.385-1.283-1.098-2.547-1.098-.446 0-.936.088-1.467.31-1.148.478-2.081 1.913-2.081 3.197 0 .147.008.293.026.435a.715.715 0 0 1-.535.78c-.806.202-1.767.753-1.767 2.23 0 1.21.677 1.866 1.244 2.203a.954.954 0 0 0 .487.124l11.363.011.225-.001c.475-.011 2.291-.2 2.291-2.407zM16.93 38.252v-.013c0-1.871 1.272-3.812 2.96-4.516a5.2 5.2 0 0 1 2.112-.408l-1.229-9.133.024-.003c-.002-.007-.006-.012-.007-.018a.534.534 0 0 1-.017-.089l-.03-.225a.663.663 0 0 1-.006-.092c0-1.203 1.371-2.216 3.406-2.951V7.985a1.12 1.12 0 0 0-1.118-1.118H8.12A1.12 1.12 0 0 0 7 7.985v32.05a1.12 1.12 0 0 0 1.119 1.118h6.57c.166-1.354.968-2.394 2.241-2.902zm.882 7.188c-.437-.001-.857-.113-1.214-.325-.606-.36-1.543-1.138-1.841-2.533h-4.185v2.857H9.143v-2.857H8.12a2.55 2.55 0 0 1-2.547-2.546V7.985a2.55 2.55 0 0 1 2.547-2.547h14.906a2.55 2.55 0 0 1 2.547 2.547V20.36c2.032-.536 4.466-.84 6.835-.84 5.636 0 11.67 1.701 11.67 4.234 0 .03-.002.062-.006.092l-.03.225a.606.606 0 0 1-.016.089l-.007.018.024.003-.972 7.205c1.56.898 2.301 1.599 2.433 2.305.065.351-.024.695-.254.967-.273.325-.693.487-1.312.487-.37 0-.822-.064-1.348-.18l-1 7.423c-.03.787-.707 1.448-2.014 1.964-.494.195-1.07.369-1.713.517-1.587.367-3.524.57-5.455.57-.638 0-2.37-.003-3.013 0H17.813zm-7.24-25h10.714v-1.43H10.572v1.43zm0 5h7.857v-1.43h-7.857v1.43zm0-10h10.714v-1.43H10.572v1.43z" clip-rule="evenodd"/></svg></svg><g transform="translate(-28.265625, 68)"><g transform="translate(0,-4)"><text><tspan dy="19" x="60.265625" text-anchor="middle"><tspan text-decoration="none" font-style="normal" font-size="14px" font-weight="normal" fill="#000000" style="font-weight: normal;">Storage (Memory)</tspan></tspan></text></g></g></g></g><g transform="translate(4272, 3904)"><g><path d="M0,5A5,5,90,0,1,5,0L27,0A5,5,90,0,1,32,5L32,59A5,5,-270,0,1,27,64L5,64A5,5,90,0,1,0,59Z" fill="#f1f1f1" stroke="#dadada" stroke-width="2"/></g><g transform="translate(10, 10)"><g transform="translate(0,-4)"><text y="12.5"><tspan dy="19" x="6" text-anchor="middle"><tspan text-decoration="none" font-style="normal" font-size="14px" font-weight="normal" fill="gray" style="font-weight: normal;"> </tspan></tspan></text></g></g><rect width="28" height="60" fill="none" stroke="none"/><g transform="translate(-5,-5)"><path d="M0,5A5,5,90,0,1,5,0L37,0A5,5,90,0,1,42,5L42,69A5,5,-270,0,1,37,74L5,74A5,5,90,0,1,0,69Z" fill="transparent"/></g><g transform="translate(5,5)"><path d="M0,5A5,5,90,0,1,5,0L17,0A5,5,90,0,1,22,5L22,49A5,5,-270,0,1,17,54L5,54A5,5,90,0,1,0,49Z" fill="transparent"/></g></g><g id="icn_7v9goofppjia0NxIXFJgK" transform="translate(4384,3280)"><g transform="translate(0,0)"><path d="&#10;    M 0, 21.248&#10;    C 0, 3.750272 3.750272, 0 21.248, 0&#10;    L 42.751999999999995, 0&#10;    C 60.249728, 0 64, 3.750272 64, 21.248&#10;    L 64, 42.751999999999995&#10;    C 64, 60.249728 60.249728, 64 42.751999999999995, 64&#10;    L 21.248, 64&#10;    C 3.750272, 64 0, 60.249728 0, 42.751999999999995&#10;    L 0, 21.248&#10;  " stroke-width="2" stroke="#bcdefb" fill="#e6f3fe"/></g><rect width="74" height="74" x="-5" y="-5" fill="transparent"/><rect width="54" height="54" x="5" y="5" fill="transparent"/><g><svg viewBox="0 0 50 50" width="40" height="40" x="12" y="12"><svg id="CAyzrMOlF_aZlnmrSKSa5" xmlns="http://www.w3.org/2000/svg" fill="none" viewBox="0 0 24 26" width="50" height="50"><g clip-path="url(#X0KFjDZCbzhBOco3ycszs)"><path fill="#000" d="M23.6 14.4H23.3c-.3 0-.5.2-.6.5v6.8c0 .4-.1.8-.3 1.1-.4.6-1 .9-1.7.9H3.5c-.4 0-.8-.1-1.1-.3-.6-.4-.9-1-.9-1.7V4.4c0-.4.1-.7.3-1 .4-.6 1-1 1.7-1h5.6c.2 0 .4-.2.5-.4.1-.3 0-.7-.3-.9-.1-.1-.2-.1-.2-.1H3.5C1.6 1 .1 2.5.1 4.4v17.3c0 1.8 1.5 3.3 3.4 3.4h17.2c1.8 0 3.3-1.5 3.4-3.4v-6.8c-.1-.2-.3-.4-.5-.5ZM20.6 1h-6c-.3.1-.6.4-.6.7 0 .3.3.6.6.6h6c.4 0 .7.1 1.1.3.6.4.9 1 1 1.7v5.8c0 .2.2.4.4.5.3.1.7-.1.9-.4V4.4C24 2.5 22.5 1 20.6 1ZM7.4 18.3c.2.3.2.6.2 1-.1.5-.4 1-.9 1.2-.8.4-1.8 0-2.2-.8-.1-.2-.2-.5-.2-.7 0-.9.7-1.6 1.6-1.6.7.1 1.3.4 1.5.9ZM6 16.4c-1.5 0-2.7 1.2-2.7 2.7 0 1.5 1.2 2.7 2.7 2.7h.5c1.3-.2 2.2-1.4 2.2-2.7 0-1.5-1.2-2.7-2.7-2.7Zm7.5 2c.4.8 0 1.8-.8 2.2-.8.4-1.8 0-2.2-.8-.1-.2-.2-.5-.2-.7 0-.9.7-1.6 1.6-1.6.2 0 .5.1.7.1.5.1.8.4.9.8Zm-1.6-2c-1.4.1-2.6 1.3-2.6 2.7 0 1.5 1.2 2.7 2.7 2.7h.5c1.3-.2 2.2-1.4 2.2-2.7 0-1.5-1.2-2.7-2.7-2.7h-.1Zm6.2 1c.6 0 1.2.3 1.5.9.1.2.2.5.2.8 0 .9-.7 1.6-1.6 1.6-.9 0-1.6-.7-1.6-1.6-.1-.9.6-1.7 1.5-1.7Zm0 4.4h.5c1.3-.2 2.2-1.4 2.2-2.7 0-1.5-1.2-2.7-2.7-2.7H18c-1.5.1-2.6 1.3-2.6 2.7 0 1.5 1.2 2.7 2.7 2.7Zm1.5-9.5c.2.3.2.7.2 1-.1.8-.9 1.4-1.6 1.4-.9 0-1.6-.7-1.6-1.6 0-.9.7-1.7 1.6-1.7.6 0 1.1.3 1.4.9Zm-1.5-2c-1.5 0-2.7 1.2-2.7 2.7 0 1.5 1.2 2.7 2.7 2.7 1.5 0 2.7-1.2 2.7-2.7 0-1.5-1.2-2.7-2.7-2.7Zm-6 4.3c-.9 0-1.6-.7-1.6-1.6 0-.9.7-1.7 1.6-1.7.6 0 1.2.4 1.5.9.2.3.2.7.2 1-.2.9-1 1.4-1.7 1.4Zm0-4.3c-1.5 0-2.7 1.2-2.7 2.7 0 1.5 1.2 2.7 2.7 2.7 1.5 0 2.7-1.2 2.7-2.7 0-1.5-1.2-2.7-2.7-2.7ZM6 14.7c-.9 0-1.6-.7-1.6-1.6 0-.9.7-1.6 1.6-1.6.4 0 .8.2 1.1.4.3.3.5.7.5 1.2 0 .8-.7 1.6-1.6 1.6Zm0-4.4c-1.5 0-2.7 1.2-2.7 2.7 0 1.5 1.2 2.7 2.7 2.7 1.5 0 2.7-1.2 2.7-2.7 0-1.5-1.2-2.7-2.7-2.7Zm12.1-1.8c-.9 0-1.6-.7-1.6-1.6 0-.9.7-1.7 1.6-1.7.6 0 1.2.3 1.4.9.2.3.2.7.2 1-.1.9-.8 1.4-1.6 1.4Zm0-4.3c-.2 0-.4 0-.5.1-1.5.3-2.4 1.7-2.1 3.2.3 1.5 1.7 2.4 3.2 2.1 1.3-.2 2.2-1.4 2.2-2.7 0-1.5-1.3-2.7-2.8-2.7Zm-6 1.1h.2c.9.1 1.5 1 1.4 1.9-.1.8-.9 1.4-1.6 1.4-.9 0-1.6-.7-1.6-1.6-.1-1 .6-1.7 1.6-1.7Zm-1.2 4.1c1.4.6 3 .1 3.6-1.3.2-.4.3-.8.3-1.2 0-1.5-1.2-2.7-2.7-2.7-1 0-2 .6-2.4 1.5-.7 1.4-.2 3 1.2 3.7ZM6 8.5c-.9 0-1.6-.7-1.6-1.6-.1-.9.7-1.6 1.6-1.6.6 0 1.2.3 1.4.9.2.3.2.7.2 1-.1.8-.9 1.3-1.6 1.3Zm0-4.3c-.2 0-.4 0-.5.1C4 4.5 3 6 3.3 7.4 3.6 8.8 5 9.9 6.5 9.6c1.3-.2 2.2-1.4 2.2-2.7 0-1.5-1.2-2.7-2.7-2.7Z"/></g><defs><clipPath id="X0KFjDZCbzhBOco3ycszs"><path fill="#fff" d="M0 0h24v26H0z"/></clipPath></defs></svg></svg><g transform="translate(-4.5546875, 68)"><g transform="translate(0,-4)"><text><tspan dy="19" x="36.5546875" text-anchor="middle"><tspan text-decoration="none" font-style="normal" font-size="14px" font-weight="normal" fill="#000000" style="font-weight: normal;">LLM Model</tspan></tspan></text></g></g></g></g><g transform="translate(4400, 4224)"><g><path d="M0,5A5,5,90,0,1,5,0L27,0A5,5,90,0,1,32,5L32,75A5,5,-270,0,1,27,80L5,80A5,5,90,0,1,0,75Z" fill="#f1f1f1" stroke="#dadada" stroke-width="2"/></g><g transform="translate(10, 10)"><g transform="translate(0,-4)"><text y="20.5"><tspan dy="19" x="6" text-anchor="middle"><tspan text-decoration="none" font-style="normal" font-size="14px" font-weight="normal" fill="gray" style="font-weight: normal;"> </tspan></tspan></text></g></g><rect width="28" height="76" fill="none" stroke="none"/><g transform="translate(-5,-5)"><path d="M0,5A5,5,90,0,1,5,0L37,0A5,5,90,0,1,42,5L42,85A5,5,-270,0,1,37,90L5,90A5,5,90,0,1,0,85Z" fill="transparent"/></g><g transform="translate(5,5)"><path d="M0,5A5,5,90,0,1,5,0L17,0A5,5,90,0,1,22,5L22,65A5,5,-270,0,1,17,70L5,70A5,5,90,0,1,0,65Z" fill="transparent"/></g></g><g id="icn_uXxAyVO3AZUM7GRhWElvy" transform="translate(3632,3280)"><g transform="translate(0,0)"><path d="&#10;    M 0, 21.248&#10;    C 0, 3.750272 3.750272, 0 21.248, 0&#10;    L 42.751999999999995, 0&#10;    C 60.249728, 0 64, 3.750272 64, 21.248&#10;    L 64, 42.751999999999995&#10;    C 64, 60.249728 60.249728, 64 42.751999999999995, 64&#10;    L 21.248, 64&#10;    C 3.750272, 64 0, 60.249728 0, 42.751999999999995&#10;    L 0, 21.248&#10;  " stroke-width="2" stroke="#dadada" fill="#f1f1f1"/></g><rect width="74" height="74" x="-5" y="-5" fill="transparent"/><rect width="54" height="54" x="5" y="5" fill="transparent"/><g><svg viewBox="0 0 50 50" width="40" height="40" x="12" y="12"><svg id="p58-mo7Ewk9LKSnEX9UwA" xmlns="http://www.w3.org/2000/svg" fill="none" viewBox="0 0 24 24" width="50" height="50"><g clip-path="url(#Bz6nxyiLAiv1MST0y_R5t)"><path fill="#231E21" d="m18.9 21.4 2.9-1.7-2.9-1.7v1.1h-4.6v1.2h4.6v1.1Zm0-7.3 2.9-1.7-2.9-1.7v1.1h-4.6V13h4.6v1.1Zm0-7.4L21.8 5l-2.9-1.7v1.1h-4.6v1.2h4.6v1.1ZM7.1 12.1v.6h2.2v-.6H7.1ZM6.4 15l2.9 2.9.4-.4-2.9-2.9-.4.4Zm0-5 .4.4 2.9-2.9-.4-.3L6.4 10Zm6.4 8.4c-.7-.7-1.9-.7-2.6 0-.7.7-.7 1.9 0 2.6.7.7 1.9.7 2.6 0 .7-.7.7-1.9 0-2.6Zm-9.9-7.3c-.5.5-.7 1.3-.4 2 .3.7 1 1.2 1.7 1.2s1.4-.5 1.7-1.2c.3-.7.1-1.5-.4-2-.7-.8-1.9-.8-2.6 0Zm9.9 0c-.7-.7-1.9-.7-2.6 0-.7.7-.7 1.9 0 2.6.7.7 1.9.7 2.6 0 .7-.7.7-1.9 0-2.6Zm0-7.4c-.7-.7-1.9-.7-2.6 0-.7.7-.7 1.9 0 2.6.7.7 1.9.7 2.6 0 .7-.7.7-1.9 0-2.6Zm10 19.1H8.3l-7.1-7.5V8.7L8 1.2h14.8v21.6ZM7.6.2.2 8.3v7.4l7.7 8.1h16V.2H7.6Z"/></g><defs><clipPath id="Bz6nxyiLAiv1MST0y_R5t"><path fill="#fff" d="M0 0h24v24H0z"/></clipPath></defs></svg></svg><g transform="translate(-2.453125, 68)"><g transform="translate(0,-4)"><text><tspan dy="19" x="34.453125" text-anchor="middle"><tspan text-decoration="none" font-style="normal" font-size="14px" font-weight="normal" fill="#000000" style="font-weight: normal;">Main Loop</tspan></tspan></text></g></g></g></g><g transform="translate(3648, 3408)"><g><path d="M0,5A5,5,90,0,1,5,0L27,0A5,5,90,0,1,32,5L32,891A5,5,-270,0,1,27,896L5,896A5,5,90,0,1,0,891Z" fill="#f1f1f1" stroke="#dadada" stroke-width="2"/></g><g transform="translate(10, 10)"><g transform="translate(0,-4)"><text y="428.5"><tspan dy="19" x="6" text-anchor="middle"><tspan text-decoration="none" font-style="normal" font-size="14px" font-weight="normal" fill="gray" style="font-weight: normal;"> </tspan></tspan></text></g></g><rect width="28" height="892" fill="none" stroke="none"/><g transform="translate(-5,-5)"><path d="M0,5A5,5,90,0,1,5,0L37,0A5,5,90,0,1,42,5L42,901A5,5,-270,0,1,37,906L5,906A5,5,90,0,1,0,901Z" fill="transparent"/></g><g transform="translate(5,5)"><path d="M0,5A5,5,90,0,1,5,0L17,0A5,5,90,0,1,22,5L22,881A5,5,-270,0,1,17,886L5,886A5,5,90,0,1,0,881Z" fill="transparent"/></g></g><g transform="translate(3712, 3488)"><g><path d="M0,5A5,5,90,0,1,5,0L75,0A5,5,90,0,1,80,5L80,27A5,5,-270,0,1,75,32L5,32A5,5,90,0,1,0,27Z" fill="#e6f3fe" stroke="#bcdefb" stroke-width="2"/></g><g transform="translate(10, 10)"><g transform="translate(0,-4)"><text y="-2.5"><tspan dy="17" x="30" text-anchor="middle"><tspan text-decoration="none" font-style="normal" font-size="12px" font-weight="bold" fill="#000000" style="font-weight: bold;">L1</tspan></tspan></text></g></g><rect width="76" height="28" fill="none" stroke="none"/><g transform="translate(-5,-5)"><path d="M0,5A5,5,90,0,1,5,0L85,0A5,5,90,0,1,90,5L90,37A5,5,-270,0,1,85,42L5,42A5,5,90,0,1,0,37Z" fill="transparent"/></g><g transform="translate(5,5)"><path d="M0,5A5,5,90,0,1,5,0L65,0A5,5,90,0,1,70,5L70,17A5,5,-270,0,1,65,22L5,22A5,5,90,0,1,0,17Z" fill="transparent"/></g></g><g transform="translate(3792, 3488)"><g><path d="M0,5A5,5,90,0,1,5,0L75,0A5,5,90,0,1,80,5L80,27A5,5,-270,0,1,75,32L5,32A5,5,90,0,1,0,27Z" fill="#e6f3fe" stroke="#bcdefb" stroke-width="2"/></g><g transform="translate(10, 10)"><g transform="translate(0,-4)"><text y="-2.5"><tspan dy="17" x="30" text-anchor="middle"><tspan text-decoration="none" font-style="normal" font-size="12px" font-weight="bold" fill="#000000" style="font-weight: bold;">L2</tspan></tspan></text></g></g><rect width="76" height="28" fill="none" stroke="none"/><g transform="translate(-5,-5)"><path d="M0,5A5,5,90,0,1,5,0L85,0A5,5,90,0,1,90,5L90,37A5,5,-270,0,1,85,42L5,42A5,5,90,0,1,0,37Z" fill="transparent"/></g><g transform="translate(5,5)"><path d="M0,5A5,5,90,0,1,5,0L65,0A5,5,90,0,1,70,5L70,17A5,5,-270,0,1,65,22L5,22A5,5,90,0,1,0,17Z" fill="transparent"/></g></g><g transform="translate(3904, 3488)"><g><path d="M0,5A5,5,90,0,1,5,0L75,0A5,5,90,0,1,80,5L80,27A5,5,-270,0,1,75,32L5,32A5,5,90,0,1,0,27Z" fill="#e6f3fe" stroke="#bcdefb" stroke-width="2"/></g><g transform="translate(10, 10)"><g transform="translate(0,-4)"><text y="-2.5"><tspan dy="17" x="30" text-anchor="middle"><tspan text-decoration="none" font-style="normal" font-size="12px" font-weight="bold" fill="#000000" style="font-weight: bold;">Ln</tspan></tspan></text></g></g><rect width="76" height="28" fill="none" stroke="none"/><g transform="translate(-5,-5)"><path d="M0,5A5,5,90,0,1,5,0L85,0A5,5,90,0,1,90,5L90,37A5,5,-270,0,1,85,42L5,42A5,5,90,0,1,0,37Z" fill="transparent"/></g><g transform="translate(5,5)"><path d="M0,5A5,5,90,0,1,5,0L65,0A5,5,90,0,1,70,5L70,17A5,5,-270,0,1,65,22L5,22A5,5,90,0,1,0,17Z" fill="transparent"/></g></g><g transform="translate(4016, 3568)"><g><path d="M0,5A5,5,90,0,1,5,0L27,0A5,5,90,0,1,32,5L32,107A5,5,-270,0,1,27,112L5,112A5,5,90,0,1,0,107Z" fill="#f1f1f1" stroke="#dadada" stroke-width="2"/></g><g transform="translate(10, 10)"><g transform="translate(0,-4)"><text y="36.5"><tspan dy="19" x="6" text-anchor="middle"><tspan text-decoration="none" font-style="normal" font-size="14px" font-weight="normal" fill="gray" style="font-weight: normal;"> </tspan></tspan></text></g></g><rect width="28" height="108" fill="none" stroke="none"/><g transform="translate(-5,-5)"><path d="M0,5A5,5,90,0,1,5,0L37,0A5,5,90,0,1,42,5L42,117A5,5,-270,0,1,37,122L5,122A5,5,90,0,1,0,117Z" fill="transparent"/></g><g transform="translate(5,5)"><path d="M0,5A5,5,90,0,1,5,0L17,0A5,5,90,0,1,22,5L22,97A5,5,-270,0,1,17,102L5,102A5,5,90,0,1,0,97Z" fill="transparent"/></g></g><g transform="translate(3712, 3568)"><g><path d="M0,5A5,5,90,0,1,5,0L75,0A5,5,90,0,1,80,5L80,27A5,5,-270,0,1,75,32L5,32A5,5,90,0,1,0,27Z" fill="#e6f3fe" stroke="#bcdefb" stroke-width="2"/></g><g transform="translate(10, 10)"><g transform="translate(0,-4)"><text y="-2.5"><tspan dy="17" x="30" text-anchor="middle"><tspan text-decoration="none" font-style="normal" font-size="12px" font-weight="bold" fill="#000000" style="font-weight: bold;">L1</tspan></tspan></text></g></g><rect width="76" height="28" fill="none" stroke="none"/><g transform="translate(-5,-5)"><path d="M0,5A5,5,90,0,1,5,0L85,0A5,5,90,0,1,90,5L90,37A5,5,-270,0,1,85,42L5,42A5,5,90,0,1,0,37Z" fill="transparent"/></g><g transform="translate(5,5)"><path d="M0,5A5,5,90,0,1,5,0L65,0A5,5,90,0,1,70,5L70,17A5,5,-270,0,1,65,22L5,22A5,5,90,0,1,0,17Z" fill="transparent"/></g></g><g transform="translate(3792, 3568)"><g><path d="M0,5A5,5,90,0,1,5,0L75,0A5,5,90,0,1,80,5L80,27A5,5,-270,0,1,75,32L5,32A5,5,90,0,1,0,27Z" fill="#e6f3fe" stroke="#bcdefb" stroke-width="2"/></g><g transform="translate(10, 10)"><g transform="translate(0,-4)"><text y="-2.5"><tspan dy="17" x="30" text-anchor="middle"><tspan text-decoration="none" font-style="normal" font-size="12px" font-weight="bold" fill="#000000" style="font-weight: bold;">L2</tspan></tspan></text></g></g><rect width="76" height="28" fill="none" stroke="none"/><g transform="translate(-5,-5)"><path d="M0,5A5,5,90,0,1,5,0L85,0A5,5,90,0,1,90,5L90,37A5,5,-270,0,1,85,42L5,42A5,5,90,0,1,0,37Z" fill="transparent"/></g><g transform="translate(5,5)"><path d="M0,5A5,5,90,0,1,5,0L65,0A5,5,90,0,1,70,5L70,17A5,5,-270,0,1,65,22L5,22A5,5,90,0,1,0,17Z" fill="transparent"/></g></g><g transform="translate(3904, 3568)"><g><path d="M0,5A5,5,90,0,1,5,0L75,0A5,5,90,0,1,80,5L80,27A5,5,-270,0,1,75,32L5,32A5,5,90,0,1,0,27Z" fill="#e6f3fe" stroke="#bcdefb" stroke-width="2"/></g><g transform="translate(10, 10)"><g transform="translate(0,-4)"><text y="-2.5"><tspan dy="17" x="30" text-anchor="middle"><tspan text-decoration="none" font-style="normal" font-size="12px" font-weight="bold" fill="#000000" style="font-weight: bold;">Ln</tspan></tspan></text></g></g><rect width="76" height="28" fill="none" stroke="none"/><g transform="translate(-5,-5)"><path d="M0,5A5,5,90,0,1,5,0L85,0A5,5,90,0,1,90,5L90,37A5,5,-270,0,1,85,42L5,42A5,5,90,0,1,0,37Z" fill="transparent"/></g><g transform="translate(5,5)"><path d="M0,5A5,5,90,0,1,5,0L65,0A5,5,90,0,1,70,5L70,17A5,5,-270,0,1,65,22L5,22A5,5,90,0,1,0,17Z" fill="transparent"/></g></g><g transform="translate(3744, 3872)"><g><path d="M0,5A5,5,90,0,1,5,0L59,0A5,5,90,0,1,64,5L64,27A5,5,-270,0,1,59,32L5,32A5,5,90,0,1,0,27Z" fill="#e8f4ee" stroke="#c2e1d2" stroke-width="2"/></g><g transform="translate(10, 10)"><g transform="translate(0,-4)"><text y="-2.5"><tspan dy="17" x="22" text-anchor="middle"><tspan text-decoration="none" font-style="normal" font-size="12px" font-weight="bold" fill="#000000" style="font-weight: bold;">L1.C1</tspan></tspan></text></g></g><rect width="60" height="28" fill="none" stroke="none"/><g transform="translate(-5,-5)"><path d="M0,5A5,5,90,0,1,5,0L69,0A5,5,90,0,1,74,5L74,37A5,5,-270,0,1,69,42L5,42A5,5,90,0,1,0,37Z" fill="transparent"/></g><g transform="translate(5,5)"><path d="M0,5A5,5,90,0,1,5,0L49,0A5,5,90,0,1,54,5L54,17A5,5,-270,0,1,49,22L5,22A5,5,90,0,1,0,17Z" fill="transparent"/></g></g><g transform="translate(3808, 3872)"><g><path d="M0,5A5,5,90,0,1,5,0L59,0A5,5,90,0,1,64,5L64,27A5,5,-270,0,1,59,32L5,32A5,5,90,0,1,0,27Z" fill="#e8f4ee" stroke="#c2e1d2" stroke-width="2"/></g><g transform="translate(10, 10)"><g transform="translate(0,-4)"><text y="-2.5"><tspan dy="17" x="22" text-anchor="middle"><tspan text-decoration="none" font-style="normal" font-size="12px" font-weight="bold" fill="#000000" style="font-weight: bold;">L1.C2</tspan></tspan></text></g></g><rect width="60" height="28" fill="none" stroke="none"/><g transform="translate(-5,-5)"><path d="M0,5A5,5,90,0,1,5,0L69,0A5,5,90,0,1,74,5L74,37A5,5,-270,0,1,69,42L5,42A5,5,90,0,1,0,37Z" fill="transparent"/></g><g transform="translate(5,5)"><path d="M0,5A5,5,90,0,1,5,0L49,0A5,5,90,0,1,54,5L54,17A5,5,-270,0,1,49,22L5,22A5,5,90,0,1,0,17Z" fill="transparent"/></g></g><g transform="translate(3904, 3872)"><g><path d="M0,5A5,5,90,0,1,5,0L59,0A5,5,90,0,1,64,5L64,27A5,5,-270,0,1,59,32L5,32A5,5,90,0,1,0,27Z" fill="#e8f4ee" stroke="#c2e1d2" stroke-width="2"/></g><g transform="translate(10, 10)"><g transform="translate(0,-4)"><text y="-2.5"><tspan dy="17" x="22" text-anchor="middle"><tspan text-decoration="none" font-style="normal" font-size="12px" font-weight="bold" fill="#000000" style="font-weight: bold;">L2.C1</tspan></tspan></text></g></g><rect width="60" height="28" fill="none" stroke="none"/><g transform="translate(-5,-5)"><path d="M0,5A5,5,90,0,1,5,0L69,0A5,5,90,0,1,74,5L74,37A5,5,-270,0,1,69,42L5,42A5,5,90,0,1,0,37Z" fill="transparent"/></g><g transform="translate(5,5)"><path d="M0,5A5,5,90,0,1,5,0L49,0A5,5,90,0,1,54,5L54,17A5,5,-270,0,1,49,22L5,22A5,5,90,0,1,0,17Z" fill="transparent"/></g></g><g transform="translate(4064, 3872)"><g><path d="M0,5A5,5,90,0,1,5,0L59,0A5,5,90,0,1,64,5L64,27A5,5,-270,0,1,59,32L5,32A5,5,90,0,1,0,27Z" fill="#e8f4ee" stroke="#c2e1d2" stroke-width="2"/></g><g transform="translate(10, 10)"><g transform="translate(0,-4)"><text y="-2.5"><tspan dy="17" x="22" text-anchor="middle"><tspan text-decoration="none" font-style="normal" font-size="12px" font-weight="bold" fill="#000000" style="font-weight: bold;">Ln.Cm</tspan></tspan></text></g></g><rect width="60" height="28" fill="none" stroke="none"/><g transform="translate(-5,-5)"><path d="M0,5A5,5,90,0,1,5,0L69,0A5,5,90,0,1,74,5L74,37A5,5,-270,0,1,69,42L5,42A5,5,90,0,1,0,37Z" fill="transparent"/></g><g transform="translate(5,5)"><path d="M0,5A5,5,90,0,1,5,0L49,0A5,5,90,0,1,54,5L54,17A5,5,-270,0,1,49,22L5,22A5,5,90,0,1,0,17Z" fill="transparent"/></g></g><g transform="translate(3776, 3744)"><g><path d="M0,5A5,5,90,0,1,5,0L75,0A5,5,90,0,1,80,5L80,27A5,5,-270,0,1,75,32L5,32A5,5,90,0,1,0,27Z" fill="#e6f3fe" stroke="#bcdefb" stroke-width="2"/></g><g transform="translate(10, 10)"><g transform="translate(0,-4)"><text y="-2.5"><tspan dy="17" x="30" text-anchor="middle"><tspan text-decoration="none" font-style="normal" font-size="12px" font-weight="bold" fill="#000000" style="font-weight: bold;">L1</tspan></tspan></text></g></g><rect width="76" height="28" fill="none" stroke="none"/><g transform="translate(-5,-5)"><path d="M0,5A5,5,90,0,1,5,0L85,0A5,5,90,0,1,90,5L90,37A5,5,-270,0,1,85,42L5,42A5,5,90,0,1,0,37Z" fill="transparent"/></g><g transform="translate(5,5)"><path d="M0,5A5,5,90,0,1,5,0L65,0A5,5,90,0,1,70,5L70,17A5,5,-270,0,1,65,22L5,22A5,5,90,0,1,0,17Z" fill="transparent"/></g></g><g transform="translate(3856, 3744)"><g><path d="M0,5A5,5,90,0,1,5,0L75,0A5,5,90,0,1,80,5L80,27A5,5,-270,0,1,75,32L5,32A5,5,90,0,1,0,27Z" fill="#e6f3fe" stroke="#bcdefb" stroke-width="2"/></g><g transform="translate(10, 10)"><g transform="translate(0,-4)"><text y="-2.5"><tspan dy="17" x="30" text-anchor="middle"><tspan text-decoration="none" font-style="normal" font-size="12px" font-weight="bold" fill="#000000" style="font-weight: bold;">L2</tspan></tspan></text></g></g><rect width="76" height="28" fill="none" stroke="none"/><g transform="translate(-5,-5)"><path d="M0,5A5,5,90,0,1,5,0L85,0A5,5,90,0,1,90,5L90,37A5,5,-270,0,1,85,42L5,42A5,5,90,0,1,0,37Z" fill="transparent"/></g><g transform="translate(5,5)"><path d="M0,5A5,5,90,0,1,5,0L65,0A5,5,90,0,1,70,5L70,17A5,5,-270,0,1,65,22L5,22A5,5,90,0,1,0,17Z" fill="transparent"/></g></g><g transform="translate(3968, 3744)"><g><path d="M0,5A5,5,90,0,1,5,0L75,0A5,5,90,0,1,80,5L80,27A5,5,-270,0,1,75,32L5,32A5,5,90,0,1,0,27Z" fill="#e6f3fe" stroke="#bcdefb" stroke-width="2"/></g><g transform="translate(10, 10)"><g transform="translate(0,-4)"><text y="-2.5"><tspan dy="17" x="30" text-anchor="middle"><tspan text-decoration="none" font-style="normal" font-size="12px" font-weight="bold" fill="#000000" style="font-weight: bold;">Ln</tspan></tspan></text></g></g><rect width="76" height="28" fill="none" stroke="none"/><g transform="translate(-5,-5)"><path d="M0,5A5,5,90,0,1,5,0L85,0A5,5,90,0,1,90,5L90,37A5,5,-270,0,1,85,42L5,42A5,5,90,0,1,0,37Z" fill="transparent"/></g><g transform="translate(5,5)"><path d="M0,5A5,5,90,0,1,5,0L65,0A5,5,90,0,1,70,5L70,17A5,5,-270,0,1,65,22L5,22A5,5,90,0,1,0,17Z" fill="transparent"/></g></g><g transform="translate(3968, 3872)"><g><path d="M0,5A5,5,90,0,1,5,0L59,0A5,5,90,0,1,64,5L64,27A5,5,-270,0,1,59,32L5,32A5,5,90,0,1,0,27Z" fill="#e8f4ee" stroke="#c2e1d2" stroke-width="2"/></g><g transform="translate(10, 10)"><g transform="translate(0,-4)"><text y="-2.5"><tspan dy="17" x="22" text-anchor="middle"><tspan text-decoration="none" font-style="normal" font-size="12px" font-weight="bold" fill="#000000" style="font-weight: bold;">L2.C2</tspan></tspan></text></g></g><rect width="60" height="28" fill="none" stroke="none"/><g transform="translate(-5,-5)"><path d="M0,5A5,5,90,0,1,5,0L69,0A5,5,90,0,1,74,5L74,37A5,5,-270,0,1,69,42L5,42A5,5,90,0,1,0,37Z" fill="transparent"/></g><g transform="translate(5,5)"><path d="M0,5A5,5,90,0,1,5,0L49,0A5,5,90,0,1,54,5L54,17A5,5,-270,0,1,49,22L5,22A5,5,90,0,1,0,17Z" fill="transparent"/></g></g><g transform="translate(4272, 4000)"><g><path d="M0,5A5,5,90,0,1,5,0L27,0A5,5,90,0,1,32,5L32,59A5,5,-270,0,1,27,64L5,64A5,5,90,0,1,0,59Z" fill="#f1f1f1" stroke="#dadada" stroke-width="2"/></g><g transform="translate(10, 10)"><g transform="translate(0,-4)"><text y="12.5"><tspan dy="19" x="6" text-anchor="middle"><tspan text-decoration="none" font-style="normal" font-size="14px" font-weight="normal" fill="gray" style="font-weight: normal;"> </tspan></tspan></text></g></g><rect width="28" height="60" fill="none" stroke="none"/><g transform="translate(-5,-5)"><path d="M0,5A5,5,90,0,1,5,0L37,0A5,5,90,0,1,42,5L42,69A5,5,-270,0,1,37,74L5,74A5,5,90,0,1,0,69Z" fill="transparent"/></g><g transform="translate(5,5)"><path d="M0,5A5,5,90,0,1,5,0L17,0A5,5,90,0,1,22,5L22,49A5,5,-270,0,1,17,54L5,54A5,5,90,0,1,0,49Z" fill="transparent"/></g></g><g transform="translate(3808, 4064)"><g><path d="M0,5A5,5,90,0,1,5,0L59,0A5,5,90,0,1,64,5L64,27A5,5,-270,0,1,59,32L5,32A5,5,90,0,1,0,27Z" fill="#e8f4ee" stroke="#c2e1d2" stroke-width="2"/></g><g transform="translate(10, 10)"><g transform="translate(0,-4)"><text y="-2.5"><tspan dy="17" x="22" text-anchor="middle"><tspan text-decoration="none" font-style="normal" font-size="12px" font-weight="bold" fill="#000000" style="font-weight: bold;">Lx.Ci</tspan></tspan></text></g></g><rect width="60" height="28" fill="none" stroke="none"/><g transform="translate(-5,-5)"><path d="M0,5A5,5,90,0,1,5,0L69,0A5,5,90,0,1,74,5L74,37A5,5,-270,0,1,69,42L5,42A5,5,90,0,1,0,37Z" fill="transparent"/></g><g transform="translate(5,5)"><path d="M0,5A5,5,90,0,1,5,0L49,0A5,5,90,0,1,54,5L54,17A5,5,-270,0,1,49,22L5,22A5,5,90,0,1,0,17Z" fill="transparent"/></g></g><g transform="translate(3888, 4064)"><g><path d="M0,5A5,5,90,0,1,5,0L59,0A5,5,90,0,1,64,5L64,27A5,5,-270,0,1,59,32L5,32A5,5,90,0,1,0,27Z" fill="#e8f4ee" stroke="#c2e1d2" stroke-width="2"/></g><g transform="translate(10, 10)"><g transform="translate(0,-4)"><text y="-2.5"><tspan dy="17" x="22" text-anchor="middle"><tspan text-decoration="none" font-style="normal" font-size="12px" font-weight="bold" fill="#000000" style="font-weight: bold;">Ly.Cj</tspan></tspan></text></g></g><rect width="60" height="28" fill="none" stroke="none"/><g transform="translate(-5,-5)"><path d="M0,5A5,5,90,0,1,5,0L69,0A5,5,90,0,1,74,5L74,37A5,5,-270,0,1,69,42L5,42A5,5,90,0,1,0,37Z" fill="transparent"/></g><g transform="translate(5,5)"><path d="M0,5A5,5,90,0,1,5,0L49,0A5,5,90,0,1,54,5L54,17A5,5,-270,0,1,49,22L5,22A5,5,90,0,1,0,17Z" fill="transparent"/></g></g><g transform="translate(3696, 3648)"><g><path d="M0,5A5,5,90,0,1,5,0L59,0A5,5,90,0,1,64,5L64,27A5,5,-270,0,1,59,32L5,32A5,5,90,0,1,0,27Z" fill="#e8f4ee" stroke="#c2e1d2" stroke-width="2"/></g><g transform="translate(10, 10)"><g transform="translate(0,-4)"><text y="-2.5"><tspan dy="17" x="22" text-anchor="middle"><tspan text-decoration="none" font-style="normal" font-size="12px" font-weight="bold" fill="#000000" style="font-weight: bold;">L1.C1</tspan></tspan></text></g></g><rect width="60" height="28" fill="none" stroke="none"/><g transform="translate(-5,-5)"><path d="M0,5A5,5,90,0,1,5,0L69,0A5,5,90,0,1,74,5L74,37A5,5,-270,0,1,69,42L5,42A5,5,90,0,1,0,37Z" fill="transparent"/></g><g transform="translate(5,5)"><path d="M0,5A5,5,90,0,1,5,0L49,0A5,5,90,0,1,54,5L54,17A5,5,-270,0,1,49,22L5,22A5,5,90,0,1,0,17Z" fill="transparent"/></g></g><g transform="translate(3760, 3648)"><g><path d="M0,5A5,5,90,0,1,5,0L59,0A5,5,90,0,1,64,5L64,27A5,5,-270,0,1,59,32L5,32A5,5,90,0,1,0,27Z" fill="#e8f4ee" stroke="#c2e1d2" stroke-width="2"/></g><g transform="translate(10, 10)"><g transform="translate(0,-4)"><text y="-2.5"><tspan dy="17" x="22" text-anchor="middle"><tspan text-decoration="none" font-style="normal" font-size="12px" font-weight="bold" fill="#000000" style="font-weight: bold;">L1.C2</tspan></tspan></text></g></g><rect width="60" height="28" fill="none" stroke="none"/><g transform="translate(-5,-5)"><path d="M0,5A5,5,90,0,1,5,0L69,0A5,5,90,0,1,74,5L74,37A5,5,-270,0,1,69,42L5,42A5,5,90,0,1,0,37Z" fill="transparent"/></g><g transform="translate(5,5)"><path d="M0,5A5,5,90,0,1,5,0L49,0A5,5,90,0,1,54,5L54,17A5,5,-270,0,1,49,22L5,22A5,5,90,0,1,0,17Z" fill="transparent"/></g></g><g transform="translate(3840, 3648)"><g><path d="M0,5A5,5,90,0,1,5,0L59,0A5,5,90,0,1,64,5L64,27A5,5,-270,0,1,59,32L5,32A5,5,90,0,1,0,27Z" fill="#e8f4ee" stroke="#c2e1d2" stroke-width="2"/></g><g transform="translate(10, 10)"><g transform="translate(0,-4)"><text y="-2.5"><tspan dy="17" x="22" text-anchor="middle"><tspan text-decoration="none" font-style="normal" font-size="12px" font-weight="bold" fill="#000000" style="font-weight: bold;">L2.C1</tspan></tspan></text></g></g><rect width="60" height="28" fill="none" stroke="none"/><g transform="translate(-5,-5)"><path d="M0,5A5,5,90,0,1,5,0L69,0A5,5,90,0,1,74,5L74,37A5,5,-270,0,1,69,42L5,42A5,5,90,0,1,0,37Z" fill="transparent"/></g><g transform="translate(5,5)"><path d="M0,5A5,5,90,0,1,5,0L49,0A5,5,90,0,1,54,5L54,17A5,5,-270,0,1,49,22L5,22A5,5,90,0,1,0,17Z" fill="transparent"/></g></g><g transform="translate(3936, 3648)"><g><path d="M0,5A5,5,90,0,1,5,0L59,0A5,5,90,0,1,64,5L64,27A5,5,-270,0,1,59,32L5,32A5,5,90,0,1,0,27Z" fill="#e8f4ee" stroke="#c2e1d2" stroke-width="2"/></g><g transform="translate(10, 10)"><g transform="translate(0,-4)"><text y="-2.5"><tspan dy="17" x="22" text-anchor="middle"><tspan text-decoration="none" font-style="normal" font-size="12px" font-weight="bold" fill="#000000" style="font-weight: bold;">Ln.Cm</tspan></tspan></text></g></g><rect width="60" height="28" fill="none" stroke="none"/><g transform="translate(-5,-5)"><path d="M0,5A5,5,90,0,1,5,0L69,0A5,5,90,0,1,74,5L74,37A5,5,-270,0,1,69,42L5,42A5,5,90,0,1,0,37Z" fill="transparent"/></g><g transform="translate(5,5)"><path d="M0,5A5,5,90,0,1,5,0L49,0A5,5,90,0,1,54,5L54,17A5,5,-270,0,1,49,22L5,22A5,5,90,0,1,0,17Z" fill="transparent"/></g></g><g transform="translate(3968, 4064)"><g><path d="M0,5A5,5,90,0,1,5,0L59,0A5,5,90,0,1,64,5L64,27A5,5,-270,0,1,59,32L5,32A5,5,90,0,1,0,27Z" fill="#e8f4ee" stroke="#c2e1d2" stroke-width="2"/></g><g transform="translate(10, 10)"><g transform="translate(0,-4)"><text y="-2.5"><tspan dy="17" x="22" text-anchor="middle"><tspan text-decoration="none" font-style="normal" font-size="12px" font-weight="bold" fill="#000000" style="font-weight: bold;">Lz.Ck</tspan></tspan></text></g></g><rect width="60" height="28" fill="none" stroke="none"/><g transform="translate(-5,-5)"><path d="M0,5A5,5,90,0,1,5,0L69,0A5,5,90,0,1,74,5L74,37A5,5,-270,0,1,69,42L5,42A5,5,90,0,1,0,37Z" fill="transparent"/></g><g transform="translate(5,5)"><path d="M0,5A5,5,90,0,1,5,0L49,0A5,5,90,0,1,54,5L54,17A5,5,-270,0,1,49,22L5,22A5,5,90,0,1,0,17Z" fill="transparent"/></g></g><g transform="translate(4144, 4112)"><g><path d="M0,5A5,5,90,0,1,5,0L27,0A5,5,90,0,1,32,5L32,75A5,5,-270,0,1,27,80L5,80A5,5,90,0,1,0,75Z" fill="#f1f1f1" stroke="#dadada" stroke-width="2"/></g><g transform="translate(10, 10)"><g transform="translate(0,-4)"><text y="20.5"><tspan dy="19" x="6" text-anchor="middle"><tspan text-decoration="none" font-style="normal" font-size="14px" font-weight="normal" fill="gray" style="font-weight: normal;"> </tspan></tspan></text></g></g><rect width="28" height="76" fill="none" stroke="none"/><g transform="translate(-5,-5)"><path d="M0,5A5,5,90,0,1,5,0L37,0A5,5,90,0,1,42,5L42,85A5,5,-270,0,1,37,90L5,90A5,5,90,0,1,0,85Z" fill="transparent"/></g><g transform="translate(5,5)"><path d="M0,5A5,5,90,0,1,5,0L17,0A5,5,90,0,1,22,5L22,65A5,5,-270,0,1,17,70L5,70A5,5,90,0,1,0,65Z" fill="transparent"/></g></g><g transform="translate(3792, 4176)"><g><path d="M0,5A5,5,90,0,1,5,0L75,0A5,5,90,0,1,80,5L80,27A5,5,-270,0,1,75,32L5,32A5,5,90,0,1,0,27Z" fill="#e6f3fe" stroke="#bcdefb" stroke-width="2"/></g><g transform="translate(10, 10)"><g transform="translate(0,-4)"><text y="-2.5"><tspan dy="17" x="30" text-anchor="middle"><tspan text-decoration="none" font-style="normal" font-size="12px" font-weight="bold" fill="#000000" style="font-weight: bold;">Lx</tspan></tspan></text></g></g><rect width="76" height="28" fill="none" stroke="none"/><g transform="translate(-5,-5)"><path d="M0,5A5,5,90,0,1,5,0L85,0A5,5,90,0,1,90,5L90,37A5,5,-270,0,1,85,42L5,42A5,5,90,0,1,0,37Z" fill="transparent"/></g><g transform="translate(5,5)"><path d="M0,5A5,5,90,0,1,5,0L65,0A5,5,90,0,1,70,5L70,17A5,5,-270,0,1,65,22L5,22A5,5,90,0,1,0,17Z" fill="transparent"/></g></g><g transform="translate(3888, 4176)"><g><path d="M0,5A5,5,90,0,1,5,0L75,0A5,5,90,0,1,80,5L80,27A5,5,-270,0,1,75,32L5,32A5,5,90,0,1,0,27Z" fill="#e6f3fe" stroke="#bcdefb" stroke-width="2"/></g><g transform="translate(10, 10)"><g transform="translate(0,-4)"><text y="-2.5"><tspan dy="17" x="30" text-anchor="middle"><tspan text-decoration="none" font-style="normal" font-size="12px" font-weight="bold" fill="#000000" style="font-weight: bold;">Ly</tspan></tspan></text></g></g><rect width="76" height="28" fill="none" stroke="none"/><g transform="translate(-5,-5)"><path d="M0,5A5,5,90,0,1,5,0L85,0A5,5,90,0,1,90,5L90,37A5,5,-270,0,1,85,42L5,42A5,5,90,0,1,0,37Z" fill="transparent"/></g><g transform="translate(5,5)"><path d="M0,5A5,5,90,0,1,5,0L65,0A5,5,90,0,1,70,5L70,17A5,5,-270,0,1,65,22L5,22A5,5,90,0,1,0,17Z" fill="transparent"/></g></g><g transform="translate(3984, 4176)"><g><path d="M0,5A5,5,90,0,1,5,0L75,0A5,5,90,0,1,80,5L80,27A5,5,-270,0,1,75,32L5,32A5,5,90,0,1,0,27Z" fill="#e6f3fe" stroke="#bcdefb" stroke-width="2"/></g><g transform="translate(10, 10)"><g transform="translate(0,-4)"><text y="-2.5"><tspan dy="17" x="30" text-anchor="middle"><tspan text-decoration="none" font-style="normal" font-size="12px" font-weight="bold" fill="#000000" style="font-weight: bold;">Lz</tspan></tspan></text></g></g><rect width="76" height="28" fill="none" stroke="none"/><g transform="translate(-5,-5)"><path d="M0,5A5,5,90,0,1,5,0L85,0A5,5,90,0,1,90,5L90,37A5,5,-270,0,1,85,42L5,42A5,5,90,0,1,0,37Z" fill="transparent"/></g><g transform="translate(5,5)"><path d="M0,5A5,5,90,0,1,5,0L65,0A5,5,90,0,1,70,5L70,17A5,5,-270,0,1,65,22L5,22A5,5,90,0,1,0,17Z" fill="transparent"/></g></g><g transform="translate(3728, 3280)"><g transform="translate(0, 0)"><g transform="translate(0,-4)"><text y="5.5"><tspan dy="19" x="0" text-anchor="start"><tspan text-decoration="none" font-style="normal" font-size="14px" font-weight="bold" fill="#000000" style="font-weight: bold;">Parent Document Retriever Diagram</tspan><tspan text-decoration="none" font-style="normal" font-size="14px" font-weight="normal" fill="#000000" style="font-weight: normal;"> </tspan></tspan><tspan dy="17" x="0" text-anchor="start"><tspan text-decoration="none" font-style="normal" font-size="12px" font-weight="normal" fill="#000000" style="font-weight: normal;">Authored by </tspan><tspan text-decoration="underline" font-style="normal" font-size="12px" font-weight="normal" fill="#000000" style="font-weight: normal;">@clusteredbytes</tspan></tspan><tspan dy="17" x="0" text-anchor="start"><tspan text-decoration="none" font-style="normal" font-size="12px" font-weight="normal" fill="#000000" style="font-weight: normal;">Redrafted by </tspan><tspan text-decoration="underline" font-style="normal" font-size="12px" font-weight="normal" fill="#000000" style="font-weight: normal;">@zhanghaili0610</tspan></tspan></text></g></g><rect x="-5" y="-5" width="293" height="69" fill="none" stroke="none"/><rect x="5" y="5" width="283" height="59" fill="none" stroke="none"/></g><g id="arr_17ES8leN6u7PD9JYd0zMp"><marker id="arrowhead_arr_17ES8leN6u7PD9JYd0zMp" refX="1" refY="3" orient="auto" markerWidth="8" markerHeight="8"><path d="M2.91922181,1.64495663 L4.49787879,4.07365967 C4.64837316,4.30518948 4.58268096,4.61488128 4.35115115,4.76537565 C4.27004602,4.81809399 4.17538993,4.84615385 4.07865698,4.84615385 L0.921343022,4.84615385 C0.645200647,4.84615385 0.421343022,4.62229622 0.421343022,4.34615385 C0.421343022,4.24942089 0.44940288,4.1547648 0.502121214,4.07365967 L2.08077819,1.64495663 C2.23127257,1.41342682 2.54096436,1.34773462 2.77249418,1.498229 C2.83112579,1.53633954 2.88111126,1.58632502 2.91922181,1.64495663 Z" fill="hsl(0, 0%, 52.3%)" transform="translate(2.500000, 2.923077) rotate(90.000000) translate(-2.500000, -2.923077)"/></marker><path id="arr_17ES8leN6u7PD9JYd0zMp_path" stroke-linecap="round" marker-end="url(#arrowhead_arr_17ES8leN6u7PD9JYd0zMp)" d="M 4139 4152 L 3978 4152 M 3846 4152 L 3692 4152  " fill="none" pointer-events="stroke" stroke-linejoin="round" stroke-dasharray="6,6" style="stroke-width: 3px; stroke: rgb(133, 133, 133);"/><path d="M 4139 4152 L 3978 4152 M 3846 4152 L 3692 4152  " fill="none" pointer-events="stroke" style="stroke-width: 4px; stroke: transparent;"/><g transform="translate(3851, 4142) "><g transform="translate(66,15)  translate(-66,-15)"><g transform="translate(0,-4)"><text y="-0.5"><tspan dy="18" x="63.5" text-anchor="middle"><tspan text-decoration="none" font-style="normal" font-size="13px" font-weight="normal" fill="#000000" style="font-weight: normal;">parent large chunks</tspan></tspan></text></g></g></g></g><g id="arr_1likeZXWQ9SzZf2QzGzzy"><path id="arr_1likeZXWQ9SzZf2QzGzzy_path" stroke-linecap="round" d="M 4037 3888 L 4059 3888  " fill="none" pointer-events="stroke" stroke-linejoin="round" stroke-dasharray="6,6" style="stroke-width: 3px; stroke: rgb(133, 133, 133);"/><path d="M 4037 3888 L 4059 3888  " fill="none" pointer-events="stroke" style="stroke-width: 4px; stroke: transparent;"/></g><g id="arr_3rYeUIogsaVXWDJtuv991"><marker id="arrowhead_arr_3rYeUIogsaVXWDJtuv991" refX="1" refY="3" orient="auto" markerWidth="8" markerHeight="8"><path d="M2.91922181,1.64495663 L4.49787879,4.07365967 C4.64837316,4.30518948 4.58268096,4.61488128 4.35115115,4.76537565 C4.27004602,4.81809399 4.17538993,4.84615385 4.07865698,4.84615385 L0.921343022,4.84615385 C0.645200647,4.84615385 0.421343022,4.62229622 0.421343022,4.34615385 C0.421343022,4.24942089 0.44940288,4.1547648 0.502121214,4.07365967 L2.08077819,1.64495663 C2.23127257,1.41342682 2.54096436,1.34773462 2.77249418,1.498229 C2.83112579,1.53633954 2.88111126,1.58632502 2.91922181,1.64495663 Z" fill="hsl(0, 0%, 52.3%)" transform="translate(2.500000, 2.923077) rotate(90.000000) translate(-2.500000, -2.923077)"/></marker><path id="arr_3rYeUIogsaVXWDJtuv991_path" stroke-linecap="round" marker-end="url(#arrowhead_arr_3rYeUIogsaVXWDJtuv991)" d="M 4011 3472 L 3692 3472  " fill="none" pointer-events="stroke" stroke-linejoin="round" stroke-dasharray="6,6" style="stroke-width: 3px; stroke: rgb(133, 133, 133);"/><path d="M 4011 3472 L 3692 3472  " fill="none" pointer-events="stroke" style="stroke-width: 4px; stroke: transparent;"/></g><g id="arr_6sNt28ps5399AQH6NUvQA"><marker id="arrowhead_arr_6sNt28ps5399AQH6NUvQA" refX="1" refY="3" orient="auto" markerWidth="8" markerHeight="8"><path d="M2.91922181,1.64495663 L4.49787879,4.07365967 C4.64837316,4.30518948 4.58268096,4.61488128 4.35115115,4.76537565 C4.27004602,4.81809399 4.17538993,4.84615385 4.07865698,4.84615385 L0.921343022,4.84615385 C0.645200647,4.84615385 0.421343022,4.62229622 0.421343022,4.34615385 C0.421343022,4.24942089 0.44940288,4.1547648 0.502121214,4.07365967 L2.08077819,1.64495663 C2.23127257,1.41342682 2.54096436,1.34773462 2.77249418,1.498229 C2.83112579,1.53633954 2.88111126,1.58632502 2.91922181,1.64495663 Z" fill="hsl(0, 0%, 52.3%)" transform="translate(2.500000, 2.923077) rotate(90.000000) translate(-2.500000, -2.923077)"/></marker><path id="arr_6sNt28ps5399AQH6NUvQA_path" stroke-linecap="round" marker-end="url(#arrowhead_arr_6sNt28ps5399AQH6NUvQA)" d="M 3685 3456 L 3744.5 3456 M 3951.5 3456 L 4004 3456  " fill="none" pointer-events="stroke" stroke-linejoin="round" style="stroke-width: 3px; stroke: rgb(133, 133, 133);"/><path d="M 3685 3456 L 3744.5 3456 M 3951.5 3456 L 4004 3456  " fill="none" pointer-events="stroke" style="stroke-width: 4px; stroke: transparent;"/><g transform="translate(3749.5, 3446) "><g transform="translate(103.5,15)  translate(-103.5,-15)"><g transform="translate(0,-4)"><text y="-0.5"><tspan dy="18" x="101" text-anchor="middle"><tspan text-decoration="none" font-style="normal" font-size="13px" font-weight="normal" fill="#000000" style="font-weight: normal;">Split documents to large chunks</tspan></tspan></text></g></g></g></g><g id="arr_8InJnBhaK2bdmtv0SMw8z"><path id="arr_8InJnBhaK2bdmtv0SMw8z_path" stroke-linecap="round" d="M 4288 3973 L 4288 3995  " fill="none" pointer-events="stroke" stroke-linejoin="round" stroke-dasharray="6,6" style="stroke-width: 3px; stroke: rgb(133, 133, 133);"/><path d="M 4288 3973 L 4288 3995  " fill="none" pointer-events="stroke" style="stroke-width: 4px; stroke: transparent;"/></g><g id="arr_8RWLrpQqyMtm1GVPLxvvM"><path id="arr_8RWLrpQqyMtm1GVPLxvvM_path" stroke-linecap="round" d="M 3877 3584 L 3899 3584  " fill="none" pointer-events="stroke" stroke-linejoin="round" stroke-dasharray="6,6" style="stroke-width: 3px; stroke: rgb(133, 133, 133);"/><path d="M 3877 3584 L 3899 3584  " fill="none" pointer-events="stroke" style="stroke-width: 4px; stroke: transparent;"/></g><g id="arr_9PcRbul1kt4foV8vs0hBw"><path id="arr_9PcRbul1kt4foV8vs0hBw_path" stroke-linecap="round" d="M 3941 3760 L 3963 3760  " fill="none" pointer-events="stroke" stroke-linejoin="round" stroke-dasharray="6,6" style="stroke-width: 3px; stroke: rgb(133, 133, 133);"/><path d="M 3941 3760 L 3963 3760  " fill="none" pointer-events="stroke" style="stroke-width: 4px; stroke: transparent;"/></g><g id="arr_BL2WUHz5FjLIR42hUfJcl"><path id="arr_BL2WUHz5FjLIR42hUfJcl_path" stroke-linecap="round" d="M 4032 3525 L 4032 3563  " fill="none" pointer-events="stroke" stroke-linejoin="round" stroke-dasharray="6,6" style="stroke-width: 3px; stroke: rgb(133, 133, 133);"/><path d="M 4032 3525 L 4032 3563  " fill="none" pointer-events="stroke" style="stroke-width: 4px; stroke: transparent;"/></g><g id="arr_BoMM8CAmdJGxcgFr4MWJa"><path id="arr_BoMM8CAmdJGxcgFr4MWJa_path" stroke-linecap="round" d="M 4160 3374 L 4160 3771  " fill="none" pointer-events="stroke" stroke-linejoin="round" stroke-dasharray="6,6" style="stroke-width: 3px; stroke: rgb(133, 133, 133);"/><path d="M 4160 3374 L 4160 3771  " fill="none" pointer-events="stroke" style="stroke-width: 4px; stroke: transparent;"/></g><g id="arr_DnERbuB9ie9FfI505rOMN"><path id="arr_DnERbuB9ie9FfI505rOMN_path" stroke-linecap="round" d="M 3664 3374 L 3664 3403  " fill="none" pointer-events="stroke" stroke-linejoin="round" stroke-dasharray="6,6" style="stroke-width: 3px; stroke: rgb(133, 133, 133);"/><path d="M 3664 3374 L 3664 3403  " fill="none" pointer-events="stroke" style="stroke-width: 4px; stroke: transparent;"/></g><g id="arr_JXKxrTYaEU4kSlJtcYMFD"><marker id="arrowhead_arr_JXKxrTYaEU4kSlJtcYMFD" refX="1" refY="3" orient="auto" markerWidth="8" markerHeight="8"><path d="M2.91922181,1.64495663 L4.49787879,4.07365967 C4.64837316,4.30518948 4.58268096,4.61488128 4.35115115,4.76537565 C4.27004602,4.81809399 4.17538993,4.84615385 4.07865698,4.84615385 L0.921343022,4.84615385 C0.645200647,4.84615385 0.421343022,4.62229622 0.421343022,4.34615385 C0.421343022,4.24942089 0.44940288,4.1547648 0.502121214,4.07365967 L2.08077819,1.64495663 C2.23127257,1.41342682 2.54096436,1.34773462 2.77249418,1.498229 C2.83112579,1.53633954 2.88111126,1.58632502 2.91922181,1.64495663 Z" fill="hsl(0, 0%, 52.3%)" transform="translate(2.500000, 2.923077) rotate(90.000000) translate(-2.500000, -2.923077)"/></marker><path id="arr_JXKxrTYaEU4kSlJtcYMFD_path" stroke-linecap="round" marker-end="url(#arrowhead_arr_JXKxrTYaEU4kSlJtcYMFD)" d="M 4011 3632 L 3692 3632  " fill="none" pointer-events="stroke" stroke-linejoin="round" stroke-dasharray="6,6" style="stroke-width: 3px; stroke: rgb(133, 133, 133);"/><path d="M 4011 3632 L 3692 3632  " fill="none" pointer-events="stroke" style="stroke-width: 4px; stroke: transparent;"/></g><g id="arr_M1haaUqRi28nLKofIBXvQ"><path id="arr_M1haaUqRi28nLKofIBXvQ_path" stroke-linecap="round" d="M 4032 3374 L 4032 3403  " fill="none" pointer-events="stroke" stroke-linejoin="round" stroke-dasharray="6,6" style="stroke-width: 3px; stroke: rgb(133, 133, 133);"/><path d="M 4032 3374 L 4032 3403  " fill="none" pointer-events="stroke" style="stroke-width: 4px; stroke: transparent;"/></g><g id="arr_QfjWU4mrYrlXmP5aHVwIa"><path id="arr_QfjWU4mrYrlXmP5aHVwIa_path" stroke-linecap="round" d="M 3877 3504 L 3899 3504  " fill="none" pointer-events="stroke" stroke-linejoin="round" stroke-dasharray="6,6" style="stroke-width: 3px; stroke: rgb(133, 133, 133);"/><path d="M 3877 3504 L 3899 3504  " fill="none" pointer-events="stroke" style="stroke-width: 4px; stroke: transparent;"/></g><g id="arr_Rzk8xVYnCRWk4htdvf1q6"><path id="arr_Rzk8xVYnCRWk4htdvf1q6_path" stroke-linecap="round" d="M 3877 3888 L 3899 3888  " fill="none" pointer-events="stroke" stroke-linejoin="round" stroke-dasharray="6,6" style="stroke-width: 3px; stroke: rgb(133, 133, 133);"/><path d="M 3877 3888 L 3899 3888  " fill="none" pointer-events="stroke" style="stroke-width: 4px; stroke: transparent;"/></g><g id="arr_U8z7VOPr6STO7KEPOfCCu"><marker id="arrowhead_arr_U8z7VOPr6STO7KEPOfCCu" refX="1" refY="3" orient="auto" markerWidth="8" markerHeight="8"><path d="M2.91922181,1.64495663 L4.49787879,4.07365967 C4.64837316,4.30518948 4.58268096,4.61488128 4.35115115,4.76537565 C4.27004602,4.81809399 4.17538993,4.84615385 4.07865698,4.84615385 L0.921343022,4.84615385 C0.645200647,4.84615385 0.421343022,4.62229622 0.421343022,4.34615385 C0.421343022,4.24942089 0.44940288,4.1547648 0.502121214,4.07365967 L2.08077819,1.64495663 C2.23127257,1.41342682 2.54096436,1.34773462 2.77249418,1.498229 C2.83112579,1.53633954 2.88111126,1.58632502 2.91922181,1.64495663 Z" fill="hsl(0, 0%, 52.3%)" transform="translate(2.500000, 2.923077) rotate(90.000000) translate(-2.500000, -2.923077)"/></marker><path id="arr_U8z7VOPr6STO7KEPOfCCu_path" stroke-linecap="round" marker-end="url(#arrowhead_arr_U8z7VOPr6STO7KEPOfCCu)" d="M 4395 4272 L 4143 4272 M 3937 4272 L 3692 4272  " fill="none" pointer-events="stroke" stroke-linejoin="round" stroke-dasharray="6,6" style="stroke-width: 3px; stroke: rgb(133, 133, 133);"/><path d="M 4395 4272 L 4143 4272 M 3937 4272 L 3692 4272  " fill="none" pointer-events="stroke" style="stroke-width: 4px; stroke: transparent;"/><g transform="translate(3942, 4262) "><g transform="translate(103,15)  translate(-103,-15)"><g transform="translate(0,-4)"><text y="-0.5"><tspan dy="18" x="100.5" text-anchor="middle"><tspan text-decoration="none" font-style="normal" font-size="13px" font-weight="normal" fill="#000000" style="font-weight: normal;">LLM response to given question</tspan></tspan></text></g></g></g></g><g id="arr_Xey7f4e3khuJzStv1rQsO"><marker id="arrowhead_arr_Xey7f4e3khuJzStv1rQsO" refX="1" refY="3" orient="auto" markerWidth="8" markerHeight="8"><path d="M2.91922181,1.64495663 L4.49787879,4.07365967 C4.64837316,4.30518948 4.58268096,4.61488128 4.35115115,4.76537565 C4.27004602,4.81809399 4.17538993,4.84615385 4.07865698,4.84615385 L0.921343022,4.84615385 C0.645200647,4.84615385 0.421343022,4.62229622 0.421343022,4.34615385 C0.421343022,4.24942089 0.44940288,4.1547648 0.502121214,4.07365967 L2.08077819,1.64495663 C2.23127257,1.41342682 2.54096436,1.34773462 2.77249418,1.498229 C2.83112579,1.53633954 2.88111126,1.58632502 2.91922181,1.64495663 Z" fill="hsl(0, 0%, 52.3%)" transform="translate(2.500000, 2.923077) rotate(90.000000) translate(-2.500000, -2.923077)"/></marker><path id="arr_Xey7f4e3khuJzStv1rQsO_path" stroke-linecap="round" marker-end="url(#arrowhead_arr_Xey7f4e3khuJzStv1rQsO)" d="M 3685 3616 L 3725.5 3616 M 3970.5 3616 L 4004 3616  " fill="none" pointer-events="stroke" stroke-linejoin="round" style="stroke-width: 3px; stroke: rgb(133, 133, 133);"/><path d="M 3685 3616 L 3725.5 3616 M 3970.5 3616 L 4004 3616  " fill="none" pointer-events="stroke" style="stroke-width: 4px; stroke: transparent;"/><g transform="translate(3730.5, 3606) "><g transform="translate(122.5,15)  translate(-122.5,-15)"><g transform="translate(0,-4)"><text y="-0.5"><tspan dy="18" x="120" text-anchor="middle"><tspan text-decoration="none" font-style="normal" font-size="13px" font-weight="normal" fill="#000000" style="font-weight: normal;">Split each large chunk to small chunks</tspan></tspan></text></g></g></g></g><g id="arr_Yh5BcmDIjmHXOoPHY7BH6"><marker id="arrowhead_arr_Yh5BcmDIjmHXOoPHY7BH6" refX="1" refY="3" orient="auto" markerWidth="8" markerHeight="8"><path d="M2.91922181,1.64495663 L4.49787879,4.07365967 C4.64837316,4.30518948 4.58268096,4.61488128 4.35115115,4.76537565 C4.27004602,4.81809399 4.17538993,4.84615385 4.07865698,4.84615385 L0.921343022,4.84615385 C0.645200647,4.84615385 0.421343022,4.62229622 0.421343022,4.34615385 C0.421343022,4.24942089 0.44940288,4.1547648 0.502121214,4.07365967 L2.08077819,1.64495663 C2.23127257,1.41342682 2.54096436,1.34773462 2.77249418,1.498229 C2.83112579,1.53633954 2.88111126,1.58632502 2.91922181,1.64495663 Z" fill="hsl(0, 0%, 52.3%)" transform="translate(2.500000, 2.923077) rotate(90.000000) translate(-2.500000, -2.923077)"/></marker><path id="arr_Yh5BcmDIjmHXOoPHY7BH6_path" stroke-linecap="round" marker-end="url(#arrowhead_arr_Yh5BcmDIjmHXOoPHY7BH6)" d="M 3685 3808 L 3735 3808 M 4089 3808 L 4132 3808  " fill="none" pointer-events="stroke" stroke-linejoin="round" style="stroke-width: 3px; stroke: rgb(133, 133, 133);"/><path d="M 3685 3808 L 3735 3808 M 4089 3808 L 4132 3808  " fill="none" pointer-events="stroke" style="stroke-width: 4px; stroke: transparent;"/><g transform="translate(3740, 3788) "><g transform="translate(177,25)  translate(-177,-25)"><g transform="translate(0,-4)"><text y="0.5"><tspan dy="18" x="174.5" text-anchor="middle"><tspan text-decoration="none" font-style="normal" font-size="13px" font-weight="normal" fill="#000000" style="font-weight: normal;">Store large chunks to (memory) store as key-value pairs</tspan></tspan><tspan dy="18" x="174.5" text-anchor="middle"><tspan text-decoration="none" font-style="normal" font-size="13px" font-weight="normal" fill="#000000" style="font-weight: normal;">(key: UUID, value: chunk content)</tspan></tspan></text></g></g></g></g><g id="arr_ejsDBoOgJTqGYyNKqkWl6"><marker id="arrowhead_arr_ejsDBoOgJTqGYyNKqkWl6" refX="1" refY="3" orient="auto" markerWidth="8" markerHeight="8"><path d="M2.91922181,1.64495663 L4.49787879,4.07365967 C4.64837316,4.30518948 4.58268096,4.61488128 4.35115115,4.76537565 C4.27004602,4.81809399 4.17538993,4.84615385 4.07865698,4.84615385 L0.921343022,4.84615385 C0.645200647,4.84615385 0.421343022,4.62229622 0.421343022,4.34615385 C0.421343022,4.24942089 0.44940288,4.1547648 0.502121214,4.07365967 L2.08077819,1.64495663 C2.23127257,1.41342682 2.54096436,1.34773462 2.77249418,1.498229 C2.83112579,1.53633954 2.88111126,1.58632502 2.91922181,1.64495663 Z" fill="hsl(0, 0%, 52.3%)" transform="translate(2.500000, 2.923077) rotate(90.000000) translate(-2.500000, -2.923077)"/></marker><path id="arr_ejsDBoOgJTqGYyNKqkWl6_path" stroke-linecap="round" marker-end="url(#arrowhead_arr_ejsDBoOgJTqGYyNKqkWl6)" d="M 4267 4040 L 4165 4040 M 4165 4040 a 5 5 0 1 0 -10 0 M 4155 4040 L 3986 4040 M 3854 4040 L 3692 4040  " fill="none" pointer-events="stroke" stroke-linejoin="round" stroke-dasharray="6,6" style="stroke-width: 3px; stroke: rgb(133, 133, 133);"/><path d="M 4267 4040 L 4165 4040 M 4165 4040 a 5 5 0 1 0 -10 0 M 4155 4040 L 3986 4040 M 3854 4040 L 3692 4040  " fill="none" pointer-events="stroke" style="stroke-width: 4px; stroke: transparent;"/><g transform="translate(3859, 4030) "><g transform="translate(66,15)  translate(-66,-15)"><g transform="translate(0,-4)"><text y="-0.5"><tspan dy="18" x="63.5" text-anchor="middle"><tspan text-decoration="none" font-style="normal" font-size="13px" font-weight="normal" fill="#000000" style="font-weight: normal;">similar small chunks</tspan></tspan></text></g></g></g></g><g id="arr_gdCiLatRnlsebRxegKtBQ"><marker id="arrowhead_arr_gdCiLatRnlsebRxegKtBQ" refX="1" refY="3" orient="auto" markerWidth="8" markerHeight="8"><path d="M2.91922181,1.64495663 L4.49787879,4.07365967 C4.64837316,4.30518948 4.58268096,4.61488128 4.35115115,4.76537565 C4.27004602,4.81809399 4.17538993,4.84615385 4.07865698,4.84615385 L0.921343022,4.84615385 C0.645200647,4.84615385 0.421343022,4.62229622 0.421343022,4.34615385 C0.421343022,4.24942089 0.44940288,4.1547648 0.502121214,4.07365967 L2.08077819,1.64495663 C2.23127257,1.41342682 2.54096436,1.34773462 2.77249418,1.498229 C2.83112579,1.53633954 2.88111126,1.58632502 2.91922181,1.64495663 Z" fill="hsl(0, 0%, 52.3%)" transform="translate(2.500000, 2.923077) rotate(90.000000) translate(-2.500000, -2.923077)"/></marker><path id="arr_gdCiLatRnlsebRxegKtBQ_path" stroke-linecap="round" marker-end="url(#arrowhead_arr_gdCiLatRnlsebRxegKtBQ)" d="M 3685 4024 L 3746 4024 M 4094 4024 L 4155 4024 M 4155 4024 a 5 5 0 1 1 10 0 M 4165 4024 L 4260 4024  " fill="none" pointer-events="stroke" stroke-linejoin="round" style="stroke-width: 3px; stroke: rgb(133, 133, 133);"/><path d="M 3685 4024 L 3746 4024 M 4094 4024 L 4155 4024 M 4155 4024 a 5 5 0 1 1 10 0 M 4165 4024 L 4260 4024  " fill="none" pointer-events="stroke" style="stroke-width: 4px; stroke: transparent;"/><g transform="translate(3751, 4014) "><g transform="translate(174,15)  translate(-174,-15)"><g transform="translate(0,-4)"><text y="-0.5"><tspan dy="18" x="171.5" text-anchor="middle"><tspan text-decoration="none" font-style="normal" font-size="13px" font-weight="normal" fill="#000000" style="font-weight: normal;">Similarity search over the given question [embeddings]</tspan></tspan></text></g></g></g></g><g id="arr_gsTO2g6etDXVJY1RYW8cc"><marker id="arrowhead_arr_gsTO2g6etDXVJY1RYW8cc" refX="1" refY="3" orient="auto" markerWidth="8" markerHeight="8"><path d="M2.91922181,1.64495663 L4.49787879,4.07365967 C4.64837316,4.30518948 4.58268096,4.61488128 4.35115115,4.76537565 C4.27004602,4.81809399 4.17538993,4.84615385 4.07865698,4.84615385 L0.921343022,4.84615385 C0.645200647,4.84615385 0.421343022,4.62229622 0.421343022,4.34615385 C0.421343022,4.24942089 0.44940288,4.1547648 0.502121214,4.07365967 L2.08077819,1.64495663 C2.23127257,1.41342682 2.54096436,1.34773462 2.77249418,1.498229 C2.83112579,1.53633954 2.88111126,1.58632502 2.91922181,1.64495663 Z" fill="hsl(0, 0%, 52.3%)" transform="translate(2.500000, 2.923077) rotate(90.000000) translate(-2.500000, -2.923077)"/></marker><path id="arr_gsTO2g6etDXVJY1RYW8cc_path" stroke-linecap="round" marker-end="url(#arrowhead_arr_gsTO2g6etDXVJY1RYW8cc)" d="M 3685 4256 L 3818 4256 M 4262 4256 L 4388 4256  " fill="none" pointer-events="stroke" stroke-linejoin="round" style="stroke-width: 3px; stroke: rgb(133, 133, 133);"/><path d="M 3685 4256 L 3818 4256 M 4262 4256 L 4388 4256  " fill="none" pointer-events="stroke" style="stroke-width: 4px; stroke: transparent;"/><g transform="translate(3823, 4246) "><g transform="translate(222,15)  translate(-222,-15)"><g transform="translate(0,-4)"><text y="-0.5"><tspan dy="18" x="219.5" text-anchor="middle"><tspan text-decoration="none" font-style="normal" font-size="13px" font-weight="normal" fill="#000000" style="font-weight: normal;">Plug in large chunks into user's query prompt as context data, call LLM</tspan></tspan></text></g></g></g></g><g id="arr_iimwBvWJoIb0ZzhFHBN3e"><path id="arr_iimwBvWJoIb0ZzhFHBN3e_path" stroke-linecap="round" d="M 4416 3374 L 4416 4219  " fill="none" pointer-events="stroke" stroke-linejoin="round" stroke-dasharray="6,6" style="stroke-width: 3px; stroke: rgb(133, 133, 133);"/><path d="M 4416 3374 L 4416 4219  " fill="none" pointer-events="stroke" style="stroke-width: 4px; stroke: transparent;"/></g><g id="arr_lfOClYqHS7IJrIZvT7zHw"><marker id="arrowhead_arr_lfOClYqHS7IJrIZvT7zHw" refX="1" refY="3" orient="auto" markerWidth="8" markerHeight="8"><path d="M2.91922181,1.64495663 L4.49787879,4.07365967 C4.64837316,4.30518948 4.58268096,4.61488128 4.35115115,4.76537565 C4.27004602,4.81809399 4.17538993,4.84615385 4.07865698,4.84615385 L0.921343022,4.84615385 C0.645200647,4.84615385 0.421343022,4.62229622 0.421343022,4.34615385 C0.421343022,4.24942089 0.44940288,4.1547648 0.502121214,4.07365967 L2.08077819,1.64495663 C2.23127257,1.41342682 2.54096436,1.34773462 2.77249418,1.498229 C2.83112579,1.53633954 2.88111126,1.58632502 2.91922181,1.64495663 Z" fill="hsl(0, 0%, 52.3%)" transform="translate(2.500000, 2.923077) rotate(90.000000) translate(-2.500000, -2.923077)"/></marker><path id="arr_lfOClYqHS7IJrIZvT7zHw_path" stroke-linecap="round" marker-end="url(#arrowhead_arr_lfOClYqHS7IJrIZvT7zHw)" d="M 3685 3936 L 3765.5 3936 M 4074.5 3936 L 4155 3936 M 4155 3936 a 5 5 0 1 1 10 0 M 4165 3936 L 4260 3936  " fill="none" pointer-events="stroke" stroke-linejoin="round" style="stroke-width: 3px; stroke: rgb(133, 133, 133);"/><path d="M 3685 3936 L 3765.5 3936 M 4074.5 3936 L 4155 3936 M 4155 3936 a 5 5 0 1 1 10 0 M 4165 3936 L 4260 3936  " fill="none" pointer-events="stroke" style="stroke-width: 4px; stroke: transparent;"/><g transform="translate(3770.5, 3916) "><g transform="translate(154.5,25)  translate(-154.5,-25)"><g transform="translate(0,-4)"><text y="0.5"><tspan dy="18" x="152" text-anchor="middle"><tspan text-decoration="none" font-style="normal" font-size="13px" font-weight="normal" fill="#000000" style="font-weight: normal;">Store small chunks [embeddings] to vector store</tspan></tspan><tspan dy="18" x="152" text-anchor="middle"><tspan text-decoration="none" font-style="normal" font-size="13px" font-weight="normal" fill="#000000" style="font-weight: normal;">(metadata: uuid of the parent large chunk)</tspan></tspan></text></g></g></g></g><g id="arr_oKUmRnr2QSBZIrYjxUh8G"><marker id="arrowhead_arr_oKUmRnr2QSBZIrYjxUh8G" refX="1" refY="3" orient="auto" markerWidth="8" markerHeight="8"><path d="M2.91922181,1.64495663 L4.49787879,4.07365967 C4.64837316,4.30518948 4.58268096,4.61488128 4.35115115,4.76537565 C4.27004602,4.81809399 4.17538993,4.84615385 4.07865698,4.84615385 L0.921343022,4.84615385 C0.645200647,4.84615385 0.421343022,4.62229622 0.421343022,4.34615385 C0.421343022,4.24942089 0.44940288,4.1547648 0.502121214,4.07365967 L2.08077819,1.64495663 C2.23127257,1.41342682 2.54096436,1.34773462 2.77249418,1.498229 C2.83112579,1.53633954 2.88111126,1.58632502 2.91922181,1.64495663 Z" fill="hsl(0, 0%, 52.3%)" transform="translate(2.500000, 2.923077) rotate(90.000000) translate(-2.500000, -2.923077)"/></marker><path id="arr_oKUmRnr2QSBZIrYjxUh8G_path" stroke-linecap="round" marker-end="url(#arrowhead_arr_oKUmRnr2QSBZIrYjxUh8G)" d="M 3685 4136 L 3723 4136 M 4101 4136 L 4132 4136  " fill="none" pointer-events="stroke" stroke-linejoin="round" style="stroke-width: 3px; stroke: rgb(133, 133, 133);"/><path d="M 3685 4136 L 3723 4136 M 4101 4136 L 4132 4136  " fill="none" pointer-events="stroke" style="stroke-width: 4px; stroke: transparent;"/><g transform="translate(3728, 4126) "><g transform="translate(189,15)  translate(-189,-15)"><g transform="translate(0,-4)"><text y="-0.5"><tspan dy="18" x="186.5" text-anchor="middle"><tspan text-decoration="none" font-style="normal" font-size="13px" font-weight="normal" fill="#000000" style="font-weight: normal;">Get large chunks per given id list (from small chunks: x, y, z)</tspan></tspan></text></g></g></g></g><g id="arr_ooU2gPufoiCh80wEcp00i"><path id="arr_ooU2gPufoiCh80wEcp00i_path" stroke-linecap="round" d="M 3909 3664 L 3931 3664  " fill="none" pointer-events="stroke" stroke-linejoin="round" stroke-dasharray="6,6" style="stroke-width: 3px; stroke: rgb(133, 133, 133);"/><path d="M 3909 3664 L 3931 3664  " fill="none" pointer-events="stroke" style="stroke-width: 4px; stroke: transparent;"/></g><g id="arr_qC3lwBNYFgKIKsogVrAjc"><path id="arr_qC3lwBNYFgKIKsogVrAjc_path" stroke-linecap="round" d="M 4160 3845 L 4160 3930 C 4160 3933 4160 3939 4160 3942 L 4160 4018 C 4160 4021 4160 4027 4160 4030 L 4160 4034 C 4160 4037 4160 4043 4160 4046 L 4160 4107  " fill="none" pointer-events="stroke" stroke-linejoin="round" stroke-dasharray="6,6" style="stroke-width: 3px; stroke: rgb(133, 133, 133);"/><path d="M 4160 3845 L 4160 3930 C 4160 3933 4160 3939 4160 3942 L 4160 4018 C 4160 4021 4160 4027 4160 4030 L 4160 4034 C 4160 4037 4160 4043 4160 4046 L 4160 4107  " fill="none" pointer-events="stroke" style="stroke-width: 4px; stroke: transparent;"/></g><g id="arr_uEpHoxAJIoVE68ZvEpO0H"><path id="arr_uEpHoxAJIoVE68ZvEpO0H_path" stroke-linecap="round" d="M 3829 3664 L 3835 3664  " fill="none" pointer-events="stroke" stroke-linejoin="round" stroke-dasharray="6,6" style="stroke-width: 3px; stroke: rgb(133, 133, 133);"/><path d="M 3829 3664 L 3835 3664  " fill="none" pointer-events="stroke" style="stroke-width: 4px; stroke: transparent;"/></g><g id="arr_uW9WOX68CGJH4SAnM2i3s"><path id="arr_uW9WOX68CGJH4SAnM2i3s_path" stroke-linecap="round" d="M 4288 3374 L 4288 3899  " fill="none" pointer-events="stroke" stroke-linejoin="round" stroke-dasharray="6,6" style="stroke-width: 3px; stroke: rgb(133, 133, 133);"/><path d="M 4288 3374 L 4288 3899  " fill="none" pointer-events="stroke" style="stroke-width: 4px; stroke: transparent;"/></g></g></g><g transform="translate(4398,4349 )"><svg width="136" height="39" viewBox="0 0 136 39" fill="none" xmlns="http://www.w3.org/2000/svg"><path d="M14.8894 1.4C12.2236 1.4 10.0442 1.52812 8.27961 1.88167C6.51137 2.23594 5.11791 2.82453 4.06254 3.77596C1.94917 5.68119 1.4 8.85031 1.4 13.62V25.38C1.4 30.1497 1.94917 33.3188 4.06254 35.224C5.11791 36.1755 6.51137 36.7641 8.27961 37.1183C10.0442 37.4719 12.2236 37.6 14.8894 37.6H121.111C123.776 37.6 125.956 37.4719 127.72 37.1183C129.489 36.7641 130.882 36.1755 131.937 35.224C134.051 33.3188 134.6 30.1497 134.6 25.38V13.62C134.6 8.85031 134.051 5.68119 131.937 3.77596C130.882 2.82453 129.489 2.23594 127.72 1.88167C125.956 1.52812 123.776 1.4 121.111 1.4H14.8894Z" fill="#F9F9F9" stroke="#D8D8D8" stroke-width="1.2"/><path d="M16.3661 25.2906C15.2929 25.2906 14.4119 24.4096 14.4119 23.3364V15.6796L14.3318 15.7597C13.5629 16.5286 12.3295 16.5286 11.5767 15.7597C10.8078 14.9908 10.8078 13.7574 11.5767 13.0046L15.0046 9.57665C15.5652 9.01601 16.3982 8.85584 17.135 9.16018C17.8719 9.46453 18.3364 10.1693 18.3364 10.9702V23.3524C18.3204 24.4096 17.4394 25.2906 16.3661 25.2906Z" fill="#ED8C22"/><path d="M23.2059 29.9199C22.1327 29.9199 21.2517 29.0389 21.2517 27.9657V15.5835C21.2517 14.5103 22.1327 13.6293 23.2059 13.6293C24.2792 13.6293 25.1602 14.5103 25.1602 15.5835V27.9657C25.1602 29.0389 24.2792 29.9199 23.2059 29.9199Z" fill="#5F63AC"/><path d="M30.0458 25.2906C28.9725 25.2906 28.0915 24.4096 28.0915 23.3364V10.9542C28.0915 9.881 28.9725 9 30.0458 9C31.119 9 32 9.881 32 10.9542V23.3364C32 24.4096 31.135 25.2906 30.0458 25.2906Z" fill="#48BEE2"/><path d="M43.6136 16V11.6364H44.2614V12.3182H44.3182C44.4091 12.0852 44.5559 11.9044 44.7585 11.7756C44.9612 11.6449 45.2045 11.5795 45.4886 11.5795C45.7765 11.5795 46.0161 11.6449 46.2074 11.7756C46.4006 11.9044 46.5511 12.0852 46.6591 12.3182H46.7045C46.8163 12.0928 46.9839 11.9138 47.2074 11.7812C47.4309 11.6468 47.6989 11.5795 48.0114 11.5795C48.4015 11.5795 48.7206 11.7017 48.9688 11.946C49.2169 12.1884 49.3409 12.5663 49.3409 13.0795V16H48.6705V13.0795C48.6705 12.7576 48.5824 12.5275 48.4062 12.3892C48.2301 12.2509 48.0227 12.1818 47.7841 12.1818C47.4773 12.1818 47.2396 12.2746 47.071 12.4602C46.9025 12.6439 46.8182 12.8769 46.8182 13.1591V16H46.1364V13.0114C46.1364 12.7633 46.0559 12.5634 45.8949 12.4119C45.7339 12.2585 45.5265 12.1818 45.2727 12.1818C45.0985 12.1818 44.9356 12.2282 44.7841 12.321C44.6345 12.4138 44.5133 12.5426 44.4205 12.7074C44.3295 12.8703 44.2841 13.0587 44.2841 13.2727V16H43.6136ZM51.8509 16.1023C51.5743 16.1023 51.3234 16.0502 51.098 15.946C50.8726 15.84 50.6937 15.6875 50.5611 15.4886C50.4285 15.2879 50.3622 15.0455 50.3622 14.7614C50.3622 14.5114 50.4115 14.3087 50.5099 14.1534C50.6084 13.9962 50.7401 13.8731 50.9048 13.7841C51.0696 13.6951 51.2514 13.6288 51.4503 13.5852C51.651 13.5398 51.8527 13.5038 52.0554 13.4773C52.3205 13.4432 52.5355 13.4176 52.7003 13.4006C52.867 13.3816 52.9882 13.3504 53.0639 13.3068C53.1416 13.2633 53.1804 13.1875 53.1804 13.0795V13.0568C53.1804 12.7765 53.1037 12.5587 52.9503 12.4034C52.7988 12.2481 52.5687 12.1705 52.2599 12.1705C51.9399 12.1705 51.6889 12.2405 51.5071 12.3807C51.3253 12.5208 51.1974 12.6705 51.1236 12.8295L50.4872 12.6023C50.6009 12.3371 50.7524 12.1307 50.9418 11.983C51.133 11.8333 51.3414 11.7292 51.5668 11.6705C51.794 11.6098 52.0175 11.5795 52.2372 11.5795C52.3774 11.5795 52.5384 11.5966 52.7202 11.6307C52.9039 11.6629 53.081 11.7301 53.2514 11.8324C53.4238 11.9347 53.5668 12.089 53.6804 12.2955C53.794 12.5019 53.8509 12.7784 53.8509 13.125V16H53.1804V15.4091H53.1463C53.1009 15.5038 53.0251 15.6051 52.919 15.7131C52.813 15.821 52.6719 15.9129 52.4957 15.9886C52.3196 16.0644 52.1046 16.1023 51.8509 16.1023ZM51.9531 15.5C52.2183 15.5 52.4418 15.4479 52.6236 15.3438C52.8073 15.2396 52.9455 15.1051 53.0384 14.9403C53.133 14.7756 53.1804 14.6023 53.1804 14.4205V13.8068C53.152 13.8409 53.0895 13.8722 52.9929 13.9006C52.8982 13.9271 52.7884 13.9508 52.6634 13.9716C52.5402 13.9905 52.42 14.0076 52.3026 14.0227C52.187 14.036 52.0933 14.0473 52.0213 14.0568C51.8471 14.0795 51.6842 14.1165 51.5327 14.1676C51.383 14.2169 51.2618 14.2917 51.169 14.392C51.0781 14.4905 51.0327 14.625 51.0327 14.7955C51.0327 15.0284 51.1188 15.2045 51.2912 15.3239C51.4654 15.4413 51.6861 15.5 51.9531 15.5ZM56.7223 16.0909C56.3587 16.0909 56.0376 15.9991 55.7592 15.8153C55.4808 15.6297 55.263 15.3684 55.1058 15.0312C54.9486 14.6922 54.87 14.2917 54.87 13.8295C54.87 13.3712 54.9486 12.9735 55.1058 12.6364C55.263 12.2992 55.4818 12.0388 55.7621 11.8551C56.0424 11.6714 56.3662 11.5795 56.7337 11.5795C57.0178 11.5795 57.2422 11.6269 57.407 11.7216C57.5736 11.8144 57.7005 11.9205 57.7876 12.0398C57.8767 12.1572 57.9458 12.2538 57.995 12.3295H58.0518V10.1818H58.7223V16H58.0746V15.3295H57.995C57.9458 15.4091 57.8757 15.5095 57.7848 15.6307C57.6939 15.75 57.5642 15.857 57.3956 15.9517C57.227 16.0445 57.0026 16.0909 56.7223 16.0909ZM56.8132 15.4886C57.0821 15.4886 57.3094 15.4186 57.495 15.2784C57.6806 15.1364 57.8217 14.9403 57.9183 14.6903C58.0149 14.4384 58.0632 14.1477 58.0632 13.8182C58.0632 13.4924 58.0159 13.2074 57.9212 12.9631C57.8265 12.7169 57.6863 12.5256 57.5007 12.3892C57.3151 12.2509 57.0859 12.1818 56.8132 12.1818C56.5291 12.1818 56.2924 12.2547 56.103 12.4006C55.9155 12.5445 55.7744 12.7405 55.6797 12.9886C55.5869 13.2348 55.5405 13.5114 55.5405 13.8182C55.5405 14.1288 55.5878 14.411 55.6825 14.6648C55.7791 14.9167 55.9212 15.1174 56.1087 15.267C56.2981 15.4148 56.5329 15.4886 56.8132 15.4886ZM61.8729 16.0909C61.4524 16.0909 61.0897 15.9981 60.7848 15.8125C60.4818 15.625 60.2479 15.3636 60.0831 15.0284C59.9202 14.6913 59.8388 14.2992 59.8388 13.8523C59.8388 13.4053 59.9202 13.0114 60.0831 12.6705C60.2479 12.3277 60.477 12.0606 60.7706 11.8693C61.0661 11.6761 61.4107 11.5795 61.8047 11.5795C62.032 11.5795 62.2564 11.6174 62.478 11.6932C62.6996 11.7689 62.9013 11.892 63.0831 12.0625C63.2649 12.2311 63.4098 12.4545 63.5178 12.733C63.6257 13.0114 63.6797 13.3542 63.6797 13.7614V14.0455H60.3161V13.4659H62.9979C62.9979 13.2197 62.9486 13 62.8501 12.8068C62.7536 12.6136 62.6153 12.4612 62.4354 12.3494C62.2573 12.2377 62.0471 12.1818 61.8047 12.1818C61.5376 12.1818 61.3066 12.2481 61.1115 12.3807C60.9183 12.5114 60.7696 12.6818 60.6655 12.892C60.5613 13.1023 60.5092 13.3277 60.5092 13.5682V13.9545C60.5092 14.2841 60.5661 14.5634 60.6797 14.7926C60.7952 15.0199 60.9553 15.1932 61.1598 15.3125C61.3643 15.4299 61.602 15.4886 61.8729 15.4886C62.049 15.4886 62.2081 15.464 62.3501 15.4148C62.4941 15.3636 62.6181 15.2879 62.7223 15.1875C62.8265 15.0852 62.907 14.9583 62.9638 14.8068L63.6115 14.9886C63.5433 15.2083 63.4287 15.4015 63.2678 15.5682C63.1068 15.733 62.9079 15.8617 62.6712 15.9545C62.4344 16.0455 62.1683 16.0909 61.8729 16.0909ZM67.9382 16L66.6087 11.6364H67.3132L68.2564 14.9773H68.3018L69.2337 11.6364H69.9496L70.87 14.9659H70.9155L71.8587 11.6364H72.5632L71.2337 16H70.5746L69.62 12.6477H69.5518L68.5973 16H67.9382ZM73.4496 16V11.6364H74.12V16H73.4496ZM73.7905 10.9091C73.6598 10.9091 73.5471 10.8646 73.4524 10.7756C73.3596 10.6866 73.3132 10.5795 73.3132 10.4545C73.3132 10.3295 73.3596 10.2225 73.4524 10.1335C73.5471 10.0445 73.6598 10 73.7905 10C73.9212 10 74.0329 10.0445 74.1257 10.1335C74.2204 10.2225 74.2678 10.3295 74.2678 10.4545C74.2678 10.5795 74.2204 10.6866 74.1257 10.7756C74.0329 10.8646 73.9212 10.9091 73.7905 10.9091ZM77.2457 11.6364V12.2045H74.9844V11.6364H77.2457ZM75.6435 10.5909H76.3139V14.75C76.3139 14.9394 76.3414 15.0814 76.3963 15.1761C76.4531 15.2689 76.5251 15.3314 76.6122 15.3636C76.7012 15.3939 76.795 15.4091 76.8935 15.4091C76.9673 15.4091 77.0279 15.4053 77.0753 15.3977C77.1226 15.3883 77.1605 15.3807 77.1889 15.375L77.3253 15.9773C77.2798 15.9943 77.2164 16.0114 77.1349 16.0284C77.0535 16.0473 76.9503 16.0568 76.8253 16.0568C76.6359 16.0568 76.4503 16.0161 76.2685 15.9347C76.0885 15.8532 75.9389 15.7292 75.8196 15.5625C75.7022 15.3958 75.6435 15.1856 75.6435 14.9318V10.5909ZM79.0185 13.375V16H78.348V10.1818H79.0185V12.3182H79.0753C79.1776 12.0928 79.331 11.9138 79.5355 11.7812C79.742 11.6468 80.0166 11.5795 80.3594 11.5795C80.6567 11.5795 80.9171 11.6392 81.1406 11.7585C81.3641 11.8759 81.5374 12.0568 81.6605 12.3011C81.7855 12.5436 81.848 12.8523 81.848 13.2273V16H81.1776V13.2727C81.1776 12.9261 81.0876 12.6581 80.9077 12.4688C80.7296 12.2775 80.4825 12.1818 80.1662 12.1818C79.9465 12.1818 79.7495 12.2282 79.5753 12.321C79.4029 12.4138 79.2666 12.5492 79.1662 12.7273C79.0677 12.9053 79.0185 13.1212 79.0185 13.375Z" fill="#181818"/><path d="M46.6477 27.1278C46.0085 27.1278 45.4545 26.9872 44.9858 26.706C44.517 26.4247 44.1534 26.0312 43.8949 25.5256C43.6392 25.0199 43.5114 24.429 43.5114 23.7528C43.5114 23.0767 43.6392 22.4844 43.8949 21.9759C44.1534 21.4673 44.517 21.0724 44.9858 20.7912C45.4545 20.5099 46.0085 20.3693 46.6477 20.3693C47.2869 20.3693 47.8409 20.5099 48.3097 20.7912C48.7784 21.0724 49.1406 21.4673 49.3963 21.9759C49.6548 22.4844 49.7841 23.0767 49.7841 23.7528C49.7841 24.429 49.6548 25.0199 49.3963 25.5256C49.1406 26.0312 48.7784 26.4247 48.3097 26.706C47.8409 26.9872 47.2869 27.1278 46.6477 27.1278ZM46.6562 25.892C47.0028 25.892 47.2926 25.7969 47.5256 25.6065C47.7585 25.4134 47.9318 25.1548 48.0455 24.831C48.1619 24.5071 48.2202 24.1463 48.2202 23.7486C48.2202 23.348 48.1619 22.9858 48.0455 22.6619C47.9318 22.3352 47.7585 22.0753 47.5256 21.8821C47.2926 21.6889 47.0028 21.5923 46.6562 21.5923C46.3011 21.5923 46.0057 21.6889 45.7699 21.8821C45.5369 22.0753 45.3622 22.3352 45.2457 22.6619C45.1321 22.9858 45.0753 23.348 45.0753 23.7486C45.0753 24.1463 45.1321 24.5071 45.2457 24.831C45.3622 25.1548 45.5369 25.4134 45.7699 25.6065C46.0057 25.7969 46.3011 25.892 46.6562 25.892ZM52.636 23.1648V27H51.0934V20.4545H52.5678V21.5668H52.6445C52.7951 21.2003 53.0352 20.9091 53.3647 20.6932C53.6971 20.4773 54.1076 20.3693 54.5962 20.3693C55.0479 20.3693 55.4414 20.4659 55.7766 20.6591C56.1147 20.8523 56.3761 21.1321 56.5607 21.4986C56.7482 21.8651 56.8406 22.3097 56.8377 22.8324V27H55.2951V23.071C55.2951 22.6335 55.1815 22.2912 54.9542 22.044C54.7298 21.7969 54.4187 21.6733 54.021 21.6733C53.7511 21.6733 53.511 21.733 53.3008 21.8523C53.0934 21.9687 52.93 22.1378 52.8107 22.3594C52.6942 22.581 52.636 22.8494 52.636 23.1648ZM61.3036 27.1278C60.6474 27.1278 60.0806 26.9915 59.6033 26.7188C59.1289 26.4432 58.7638 26.054 58.5082 25.5511C58.2525 25.0455 58.1246 24.4503 58.1246 23.7656C58.1246 23.0923 58.2525 22.5014 58.5082 21.9929C58.7667 21.4815 59.1275 21.0838 59.5906 20.7997C60.0536 20.5128 60.5977 20.3693 61.2227 20.3693C61.6261 20.3693 62.0067 20.4347 62.3647 20.5653C62.7255 20.6932 63.0437 20.892 63.3192 21.1619C63.5977 21.4318 63.8164 21.7756 63.9755 22.1932C64.1346 22.608 64.2141 23.1023 64.2141 23.6761V24.1491H58.8491V23.1094H62.7354C62.7326 22.8139 62.6687 22.5511 62.5437 22.321C62.4187 22.0881 62.244 21.9048 62.0195 21.7713C61.7979 21.6378 61.5394 21.571 61.244 21.571C60.9286 21.571 60.6516 21.6477 60.413 21.8011C60.1744 21.9517 59.9883 22.1506 59.8548 22.3977C59.7241 22.642 59.6573 22.9105 59.6545 23.2031V24.1108C59.6545 24.4915 59.7241 24.8182 59.8633 25.0909C60.0025 25.3608 60.1971 25.5682 60.4471 25.7131C60.6971 25.8551 60.9897 25.9261 61.3249 25.9261C61.5494 25.9261 61.7525 25.8949 61.9343 25.8324C62.1161 25.767 62.2738 25.6719 62.4073 25.5469C62.5408 25.4219 62.6417 25.267 62.7099 25.0824L64.1502 25.2443C64.0593 25.625 63.886 25.9574 63.6303 26.2415C63.3775 26.5227 63.0536 26.7415 62.6587 26.8977C62.2638 27.0511 61.8121 27.1278 61.3036 27.1278ZM65.5192 27V20.4545H66.9936V21.5668H67.0703C67.2067 21.1918 67.4325 20.8991 67.7479 20.6889C68.0632 20.4759 68.4396 20.3693 68.8771 20.3693C69.3203 20.3693 69.6939 20.4773 69.9979 20.6932C70.3047 20.9062 70.5206 21.1974 70.6456 21.5668H70.7138C70.8587 21.2031 71.103 20.9134 71.4467 20.6974C71.7933 20.4787 72.2038 20.3693 72.6783 20.3693C73.2805 20.3693 73.772 20.5597 74.1527 20.9403C74.5334 21.321 74.7237 21.8764 74.7237 22.6065V27H73.1768V22.8452C73.1768 22.4389 73.0689 22.142 72.853 21.9545C72.6371 21.7642 72.3729 21.669 72.0604 21.669C71.6882 21.669 71.397 21.7855 71.1868 22.0185C70.9794 22.2486 70.8757 22.5483 70.8757 22.9176V27H69.3629V22.7812C69.3629 22.4432 69.2607 22.1733 69.0561 21.9716C68.8544 21.7699 68.5902 21.669 68.2635 21.669C68.0419 21.669 67.8402 21.7259 67.6584 21.8395C67.4766 21.9503 67.3317 22.108 67.2237 22.3125C67.1158 22.5142 67.0618 22.75 67.0618 23.0199V27H65.5192ZM79.1438 27.1278C78.5046 27.1278 77.9506 26.9872 77.4819 26.706C77.0131 26.4247 76.6495 26.0312 76.391 25.5256C76.1353 25.0199 76.0075 24.429 76.0075 23.7528C76.0075 23.0767 76.1353 22.4844 76.391 21.9759C76.6495 21.4673 77.0131 21.0724 77.4819 20.7912C77.9506 20.5099 78.5046 20.3693 79.1438 20.3693C79.783 20.3693 80.337 20.5099 80.8058 20.7912C81.2745 21.0724 81.6367 21.4673 81.8924 21.9759C82.1509 22.4844 82.2802 23.0767 82.2802 23.7528C82.2802 24.429 82.1509 25.0199 81.8924 25.5256C81.6367 26.0312 81.2745 26.4247 80.8058 26.706C80.337 26.9872 79.783 27.1278 79.1438 27.1278ZM79.1523 25.892C79.4989 25.892 79.7887 25.7969 80.0217 25.6065C80.2546 25.4134 80.4279 25.1548 80.5415 24.831C80.658 24.5071 80.7163 24.1463 80.7163 23.7486C80.7163 23.348 80.658 22.9858 80.5415 22.6619C80.4279 22.3352 80.2546 22.0753 80.0217 21.8821C79.7887 21.6889 79.4989 21.5923 79.1523 21.5923C78.7972 21.5923 78.5018 21.6889 78.266 21.8821C78.033 22.0753 77.8583 22.3352 77.7418 22.6619C77.6282 22.9858 77.5714 23.348 77.5714 23.7486C77.5714 24.1463 77.6282 24.5071 77.7418 24.831C77.8583 25.1548 78.033 25.4134 78.266 25.6065C78.5018 25.7969 78.7972 25.892 79.1523 25.892ZM86.0185 27.1151C85.5043 27.1151 85.044 26.983 84.6378 26.7188C84.2315 26.4545 83.9105 26.071 83.6747 25.5682C83.4389 25.0653 83.321 24.4545 83.321 23.7358C83.321 23.0085 83.4403 22.3949 83.679 21.8949C83.9205 21.392 84.2457 21.0128 84.6548 20.7571C85.0639 20.4986 85.5199 20.3693 86.0227 20.3693C86.4063 20.3693 86.7216 20.4347 86.9688 20.5653C87.2159 20.6932 87.4119 20.848 87.5568 21.0298C87.7017 21.2088 87.8139 21.3778 87.8935 21.5369H87.9574V18.2727H89.5043V27H87.9872V25.9688H87.8935C87.8139 26.1278 87.6989 26.2969 87.5483 26.4759C87.3977 26.652 87.1989 26.8026 86.9517 26.9276C86.7045 27.0526 86.3935 27.1151 86.0185 27.1151ZM86.4489 25.8494C86.7756 25.8494 87.054 25.7614 87.2841 25.5852C87.5142 25.4062 87.6889 25.1577 87.8082 24.8395C87.9276 24.5213 87.9872 24.1506 87.9872 23.7273C87.9872 23.304 87.9276 22.9361 87.8082 22.6236C87.6918 22.3111 87.5185 22.0682 87.2884 21.8949C87.0611 21.7216 86.7813 21.6349 86.4489 21.6349C86.1051 21.6349 85.8182 21.7244 85.5881 21.9034C85.358 22.0824 85.1847 22.3295 85.0682 22.6449C84.9517 22.9602 84.8935 23.321 84.8935 23.7273C84.8935 24.1364 84.9517 24.5014 85.0682 24.8224C85.1875 25.1406 85.3622 25.392 85.5923 25.5767C85.8253 25.7585 86.1108 25.8494 86.4489 25.8494ZM94.0458 27.1278C93.3896 27.1278 92.8228 26.9915 92.3455 26.7188C91.8711 26.4432 91.506 26.054 91.2504 25.5511C90.9947 25.0455 90.8668 24.4503 90.8668 23.7656C90.8668 23.0923 90.9947 22.5014 91.2504 21.9929C91.5089 21.4815 91.8697 21.0838 92.3327 20.7997C92.7958 20.5128 93.3398 20.3693 93.9648 20.3693C94.3683 20.3693 94.7489 20.4347 95.1069 20.5653C95.4677 20.6932 95.7859 20.892 96.0614 21.1619C96.3398 21.4318 96.5586 21.7756 96.7177 22.1932C96.8768 22.608 96.9563 23.1023 96.9563 23.6761V24.1491H91.5913V23.1094H95.4776C95.4748 22.8139 95.4109 22.5511 95.2859 22.321C95.1609 22.0881 94.9862 21.9048 94.7617 21.7713C94.5401 21.6378 94.2816 21.571 93.9862 21.571C93.6708 21.571 93.3938 21.6477 93.1552 21.8011C92.9165 21.9517 92.7305 22.1506 92.5969 22.3977C92.4663 22.642 92.3995 22.9105 92.3967 23.2031V24.1108C92.3967 24.4915 92.4663 24.8182 92.6055 25.0909C92.7447 25.3608 92.9393 25.5682 93.1893 25.7131C93.4393 25.8551 93.7319 25.9261 94.0671 25.9261C94.2915 25.9261 94.4947 25.8949 94.6765 25.8324C94.8583 25.767 95.016 25.6719 95.1495 25.5469C95.283 25.4219 95.3839 25.267 95.4521 25.0824L96.8924 25.2443C96.8015 25.625 96.6282 25.9574 96.3725 26.2415C96.1197 26.5227 95.7958 26.7415 95.4009 26.8977C95.006 27.0511 94.5543 27.1278 94.0458 27.1278ZM99.804 18.2727V27H98.2614V18.2727H99.804ZM102.341 27.0938C102.082 27.0938 101.86 27.0028 101.676 26.821C101.491 26.6392 101.4 26.4176 101.403 26.1562C101.4 25.9006 101.491 25.6818 101.676 25.5C101.86 25.3182 102.082 25.2273 102.341 25.2273C102.591 25.2273 102.808 25.3182 102.993 25.5C103.18 25.6818 103.275 25.9006 103.278 26.1562C103.275 26.3295 103.23 26.4872 103.142 26.6293C103.056 26.7713 102.943 26.8849 102.801 26.9702C102.662 27.0526 102.508 27.0938 102.341 27.0938ZM106.754 27.1321C106.339 27.1321 105.966 27.0582 105.634 26.9105C105.304 26.7599 105.043 26.5384 104.849 26.2457C104.659 25.9531 104.564 25.5923 104.564 25.1634C104.564 24.794 104.632 24.4886 104.768 24.2472C104.905 24.0057 105.091 23.8125 105.327 23.6676C105.563 23.5227 105.828 23.4134 106.124 23.3395C106.422 23.2628 106.73 23.2074 107.048 23.1733C107.432 23.1335 107.743 23.098 107.982 23.0668C108.22 23.0327 108.393 22.9815 108.501 22.9134C108.612 22.8423 108.668 22.733 108.668 22.5852V22.5597C108.668 22.2386 108.572 21.9901 108.382 21.8139C108.192 21.6378 107.918 21.5497 107.56 21.5497C107.182 21.5497 106.882 21.6321 106.661 21.7969C106.442 21.9616 106.294 22.1562 106.217 22.3807L104.777 22.1761C104.891 21.7784 105.078 21.446 105.339 21.179C105.601 20.9091 105.92 20.7074 106.298 20.5739C106.676 20.4375 107.094 20.3693 107.551 20.3693C107.866 20.3693 108.18 20.4062 108.493 20.4801C108.805 20.554 109.091 20.6761 109.349 20.8466C109.608 21.0142 109.815 21.2429 109.972 21.5327C110.131 21.8224 110.21 22.1847 110.21 22.6193V27H108.727V26.1009H108.676C108.582 26.2827 108.45 26.4531 108.28 26.6122C108.112 26.7685 107.901 26.8949 107.645 26.9915C107.392 27.0852 107.095 27.1321 106.754 27.1321ZM107.155 25.9986C107.464 25.9986 107.733 25.9375 107.96 25.8153C108.188 25.6903 108.362 25.5256 108.484 25.321C108.609 25.1165 108.672 24.8935 108.672 24.652V23.8807C108.624 23.9205 108.541 23.9574 108.425 23.9915C108.311 24.0256 108.183 24.0554 108.041 24.081C107.899 24.1065 107.759 24.1293 107.619 24.1491C107.48 24.169 107.359 24.1861 107.257 24.2003C107.027 24.2315 106.821 24.2827 106.639 24.3537C106.457 24.4247 106.314 24.5241 106.209 24.652C106.104 24.777 106.051 24.9389 106.051 25.1378C106.051 25.4219 106.155 25.6364 106.362 25.7812C106.57 25.9261 106.834 25.9986 107.155 25.9986ZM111.761 29.4545V20.4545H113.278V21.5369H113.368C113.447 21.3778 113.56 21.2088 113.705 21.0298C113.849 20.848 114.045 20.6932 114.293 20.5653C114.54 20.4347 114.855 20.3693 115.239 20.3693C115.744 20.3693 116.2 20.4986 116.607 20.7571C117.016 21.0128 117.339 21.392 117.578 21.8949C117.82 22.3949 117.94 23.0085 117.94 23.7358C117.94 24.4545 117.822 25.0653 117.587 25.5682C117.351 26.071 117.03 26.4545 116.624 26.7188C116.217 26.983 115.757 27.1151 115.243 27.1151C114.868 27.1151 114.557 27.0526 114.31 26.9276C114.063 26.8026 113.864 26.652 113.713 26.4759C113.565 26.2969 113.45 26.1278 113.368 25.9688H113.304V29.4545H111.761ZM113.274 23.7273C113.274 24.1506 113.334 24.5213 113.453 24.8395C113.575 25.1577 113.75 25.4062 113.977 25.5852C114.207 25.7614 114.486 25.8494 114.812 25.8494C115.153 25.8494 115.439 25.7585 115.669 25.5767C115.899 25.392 116.072 25.1406 116.189 24.8224C116.308 24.5014 116.368 24.1364 116.368 23.7273C116.368 23.321 116.31 22.9602 116.193 22.6449C116.077 22.3295 115.903 22.0824 115.673 21.9034C115.443 21.7244 115.156 21.6349 114.812 21.6349C114.483 21.6349 114.203 21.7216 113.973 21.8949C113.743 22.0682 113.568 22.3111 113.449 22.6236C113.332 22.9361 113.274 23.304 113.274 23.7273ZM119.261 29.4545V20.4545H120.778V21.5369H120.868C120.947 21.3778 121.06 21.2088 121.205 21.0298C121.349 20.848 121.545 20.6932 121.793 20.5653C122.04 20.4347 122.355 20.3693 122.739 20.3693C123.244 20.3693 123.7 20.4986 124.107 20.7571C124.516 21.0128 124.839 21.392 125.078 21.8949C125.32 22.3949 125.44 23.0085 125.44 23.7358C125.44 24.4545 125.322 25.0653 125.087 25.5682C124.851 26.071 124.53 26.4545 124.124 26.7188C123.717 26.983 123.257 27.1151 122.743 27.1151C122.368 27.1151 122.057 27.0526 121.81 26.9276C121.563 26.8026 121.364 26.652 121.213 26.4759C121.065 26.2969 120.95 26.1278 120.868 25.9688H120.804V29.4545H119.261ZM120.774 23.7273C120.774 24.1506 120.834 24.5213 120.953 24.8395C121.075 25.1577 121.25 25.4062 121.477 25.5852C121.707 25.7614 121.986 25.8494 122.312 25.8494C122.653 25.8494 122.939 25.7585 123.169 25.5767C123.399 25.392 123.572 25.1406 123.689 24.8224C123.808 24.5014 123.868 24.1364 123.868 23.7273C123.868 23.321 123.81 22.9602 123.693 22.6449C123.577 22.3295 123.403 22.0824 123.173 21.9034C122.943 21.7244 122.656 21.6349 122.312 21.6349C121.983 21.6349 121.703 21.7216 121.473 21.8949C121.243 22.0682 121.068 22.3111 120.949 22.6236C120.832 22.9361 120.774 23.304 120.774 23.7273Z" fill="#424242"/></svg></g></svg>